<svg xmlns="http://www.w3.org/2000/svg" xmlns:xlink="http://www.w3.org/1999/xlink" width="500" zoomAndPan="magnify" viewBox="0 0 375 374.999991" height="500" preserveAspectRatio="xMidYMid meet" version="1.0"><defs><g/><clipPath id="id1"><path d="M 186 209 L 197 209 L 197 237 L 186 237 Z M 186 209 " clip-rule="nonzero"/></clipPath><clipPath id="id2"><path d="M 185.914062 210.09375 L 276.125 187.484375 L 291.988281 250.777344 L 201.777344 273.386719 Z M 185.914062 210.09375 " clip-rule="nonzero"/></clipPath><clipPath id="id3"><path d="M 185.914062 210.09375 L 276.125 187.484375 L 291.988281 250.777344 L 201.777344 273.386719 Z M 185.914062 210.09375 " clip-rule="nonzero"/></clipPath><clipPath id="id4"><path d="M 196 204 L 219 204 L 219 234 L 196 234 Z M 196 204 " clip-rule="nonzero"/></clipPath><clipPath id="id5"><path d="M 185.914062 210.09375 L 276.125 187.484375 L 291.988281 250.777344 L 201.777344 273.386719 Z M 185.914062 210.09375 " clip-rule="nonzero"/></clipPath><clipPath id="id6"><path d="M 185.914062 210.09375 L 276.125 187.484375 L 291.988281 250.777344 L 201.777344 273.386719 Z M 185.914062 210.09375 " clip-rule="nonzero"/></clipPath><clipPath id="id7"><path d="M 217 201 L 229 201 L 229 229 L 217 229 Z M 217 201 " clip-rule="nonzero"/></clipPath><clipPath id="id8"><path d="M 185.914062 210.09375 L 276.125 187.484375 L 291.988281 250.777344 L 201.777344 273.386719 Z M 185.914062 210.09375 " clip-rule="nonzero"/></clipPath><clipPath id="id9"><path d="M 185.914062 210.09375 L 276.125 187.484375 L 291.988281 250.777344 L 201.777344 273.386719 Z M 185.914062 210.09375 " clip-rule="nonzero"/></clipPath><clipPath id="id10"><path d="M 228 196 L 250 196 L 250 226 L 228 226 Z M 228 196 " clip-rule="nonzero"/></clipPath><clipPath id="id11"><path d="M 185.914062 210.09375 L 276.125 187.484375 L 291.988281 250.777344 L 201.777344 273.386719 Z M 185.914062 210.09375 " clip-rule="nonzero"/></clipPath><clipPath id="id12"><path d="M 185.914062 210.09375 L 276.125 187.484375 L 291.988281 250.777344 L 201.777344 273.386719 Z M 185.914062 210.09375 " clip-rule="nonzero"/></clipPath><clipPath id="id13"><path d="M 249 193 L 260 193 L 260 221 L 249 221 Z M 249 193 " clip-rule="nonzero"/></clipPath><clipPath id="id14"><path d="M 185.914062 210.09375 L 276.125 187.484375 L 291.988281 250.777344 L 201.777344 273.386719 Z M 185.914062 210.09375 " clip-rule="nonzero"/></clipPath><clipPath id="id15"><path d="M 185.914062 210.09375 L 276.125 187.484375 L 291.988281 250.777344 L 201.777344 273.386719 Z M 185.914062 210.09375 " clip-rule="nonzero"/></clipPath><clipPath id="id16"><path d="M 259 188 L 282 188 L 282 218 L 259 218 Z M 259 188 " clip-rule="nonzero"/></clipPath><clipPath id="id17"><path d="M 185.914062 210.09375 L 276.125 187.484375 L 291.988281 250.777344 L 201.777344 273.386719 Z M 185.914062 210.09375 " clip-rule="nonzero"/></clipPath><clipPath id="id18"><path d="M 185.914062 210.09375 L 276.125 187.484375 L 291.988281 250.777344 L 201.777344 273.386719 Z M 185.914062 210.09375 " clip-rule="nonzero"/></clipPath><clipPath id="id19"><path d="M 281 224 L 292 224 L 292 252 L 281 252 Z M 281 224 " clip-rule="nonzero"/></clipPath><clipPath id="id20"><path d="M 185.914062 210.09375 L 276.125 187.484375 L 291.988281 250.777344 L 201.777344 273.386719 Z M 185.914062 210.09375 " clip-rule="nonzero"/></clipPath><clipPath id="id21"><path d="M 185.914062 210.09375 L 276.125 187.484375 L 291.988281 250.777344 L 201.777344 273.386719 Z M 185.914062 210.09375 " clip-rule="nonzero"/></clipPath><clipPath id="id22"><path d="M 259 227 L 282 227 L 282 257 L 259 257 Z M 259 227 " clip-rule="nonzero"/></clipPath><clipPath id="id23"><path d="M 185.914062 210.09375 L 276.125 187.484375 L 291.988281 250.777344 L 201.777344 273.386719 Z M 185.914062 210.09375 " clip-rule="nonzero"/></clipPath><clipPath id="id24"><path d="M 185.914062 210.09375 L 276.125 187.484375 L 291.988281 250.777344 L 201.777344 273.386719 Z M 185.914062 210.09375 " clip-rule="nonzero"/></clipPath><clipPath id="id25"><path d="M 249 232 L 260 232 L 260 260 L 249 260 Z M 249 232 " clip-rule="nonzero"/></clipPath><clipPath id="id26"><path d="M 185.914062 210.09375 L 276.125 187.484375 L 291.988281 250.777344 L 201.777344 273.386719 Z M 185.914062 210.09375 " clip-rule="nonzero"/></clipPath><clipPath id="id27"><path d="M 185.914062 210.09375 L 276.125 187.484375 L 291.988281 250.777344 L 201.777344 273.386719 Z M 185.914062 210.09375 " clip-rule="nonzero"/></clipPath><clipPath id="id28"><path d="M 228 235 L 250 235 L 250 264 L 228 264 Z M 228 235 " clip-rule="nonzero"/></clipPath><clipPath id="id29"><path d="M 185.914062 210.09375 L 276.125 187.484375 L 291.988281 250.777344 L 201.777344 273.386719 Z M 185.914062 210.09375 " clip-rule="nonzero"/></clipPath><clipPath id="id30"><path d="M 185.914062 210.09375 L 276.125 187.484375 L 291.988281 250.777344 L 201.777344 273.386719 Z M 185.914062 210.09375 " clip-rule="nonzero"/></clipPath><clipPath id="id31"><path d="M 218 239 L 229 239 L 229 268 L 218 268 Z M 218 239 " clip-rule="nonzero"/></clipPath><clipPath id="id32"><path d="M 185.914062 210.09375 L 276.125 187.484375 L 291.988281 250.777344 L 201.777344 273.386719 Z M 185.914062 210.09375 " clip-rule="nonzero"/></clipPath><clipPath id="id33"><path d="M 185.914062 210.09375 L 276.125 187.484375 L 291.988281 250.777344 L 201.777344 273.386719 Z M 185.914062 210.09375 " clip-rule="nonzero"/></clipPath><clipPath id="id34"><path d="M 196 243 L 219 243 L 219 272 L 196 272 Z M 196 243 " clip-rule="nonzero"/></clipPath><clipPath id="id35"><path d="M 185.914062 210.09375 L 276.125 187.484375 L 291.988281 250.777344 L 201.777344 273.386719 Z M 185.914062 210.09375 " clip-rule="nonzero"/></clipPath><clipPath id="id36"><path d="M 185.914062 210.09375 L 276.125 187.484375 L 291.988281 250.777344 L 201.777344 273.386719 Z M 185.914062 210.09375 " clip-rule="nonzero"/></clipPath><clipPath id="id37"><path d="M 83.113281 88 L 288 88 L 288 286 L 83.113281 286 Z M 83.113281 88 " clip-rule="nonzero"/></clipPath><clipPath id="id38"><path d="M 83.59375 88.425781 L 287.984375 88.425781 L 287.984375 285.839844 L 83.59375 285.839844 Z M 83.59375 88.425781 " clip-rule="nonzero"/></clipPath></defs><g clip-path="url(#id1)"><g clip-path="url(#id2)"><g clip-path="url(#id3)"><path fill="rgb(71.369934%, 32.548523%, 20.779419%)" d="M 194.972656 236.652344 C 195.273438 236.578125 195.546875 236.445312 195.792969 236.261719 C 196.039062 236.078125 196.242188 235.855469 196.402344 235.589844 C 196.558594 235.324219 196.660156 235.039062 196.707031 234.734375 C 196.75 234.429688 196.738281 234.125 196.660156 233.824219 L 190.996094 211.222656 C 190.921875 210.921875 190.792969 210.648438 190.609375 210.398438 C 190.425781 210.152344 190.199219 209.949219 189.9375 209.789062 C 189.671875 209.628906 189.386719 209.527344 189.082031 209.480469 C 188.777344 209.4375 188.476562 209.449219 188.175781 209.527344 C 187.875 209.601562 187.601562 209.730469 187.355469 209.914062 C 187.109375 210.097656 186.90625 210.324219 186.746094 210.585938 C 186.589844 210.851562 186.488281 211.136719 186.441406 211.445312 C 186.398438 211.75 186.410156 212.050781 186.488281 212.351562 L 192.152344 234.957031 C 192.226562 235.253906 192.355469 235.53125 192.539062 235.777344 C 192.722656 236.027344 192.949219 236.230469 193.210938 236.390625 C 193.476562 236.546875 193.761719 236.648438 194.066406 236.695312 C 194.371094 236.742188 194.675781 236.726562 194.972656 236.652344 Z M 194.972656 236.652344 " fill-opacity="1" fill-rule="nonzero"/></g></g></g><g clip-path="url(#id4)"><g clip-path="url(#id5)"><g clip-path="url(#id6)"><path fill="rgb(71.369934%, 32.548523%, 20.779419%)" d="M 206.214844 205.003906 L 201.707031 206.136719 C 201.261719 206.246094 200.832031 206.398438 200.417969 206.597656 C 200.003906 206.792969 199.613281 207.027344 199.246094 207.300781 C 198.878906 207.574219 198.539062 207.878906 198.234375 208.21875 C 197.925781 208.558594 197.65625 208.925781 197.417969 209.320312 C 197.183594 209.714844 196.988281 210.125 196.835938 210.558594 C 196.683594 210.992188 196.570312 211.433594 196.503906 211.886719 C 196.4375 212.34375 196.414062 212.796875 196.4375 213.257812 C 196.460938 213.714844 196.527344 214.167969 196.640625 214.613281 L 200.039062 228.175781 C 200.148438 228.621094 200.304688 229.050781 200.5 229.464844 C 200.695312 229.878906 200.929688 230.273438 201.203125 230.640625 C 201.476562 231.007812 201.785156 231.347656 202.121094 231.65625 C 202.460938 231.964844 202.828125 232.238281 203.222656 232.472656 C 203.613281 232.710938 204.027344 232.90625 204.457031 233.058594 C 204.890625 233.214844 205.332031 233.324219 205.785156 233.394531 C 206.238281 233.460938 206.691406 233.484375 207.152344 233.460938 C 207.609375 233.4375 208.058594 233.371094 208.503906 233.261719 L 213.011719 232.128906 C 213.457031 232.019531 213.886719 231.867188 214.300781 231.667969 C 214.714844 231.472656 215.105469 231.238281 215.472656 230.964844 C 215.839844 230.691406 216.175781 230.386719 216.484375 230.046875 C 216.792969 229.707031 217.0625 229.339844 217.300781 228.945312 C 217.535156 228.550781 217.730469 228.140625 217.882812 227.707031 C 218.035156 227.273438 218.148438 226.832031 218.214844 226.378906 C 218.28125 225.925781 218.304688 225.46875 218.28125 225.007812 C 218.257812 224.550781 218.191406 224.097656 218.078125 223.652344 L 214.679688 210.089844 C 214.566406 209.644531 214.414062 209.214844 214.21875 208.800781 C 214.023438 208.386719 213.789062 207.992188 213.515625 207.625 C 213.242188 207.257812 212.933594 206.917969 212.59375 206.609375 C 212.257812 206.300781 211.890625 206.027344 211.496094 205.792969 C 211.105469 205.554688 210.691406 205.359375 210.261719 205.207031 C 209.828125 205.050781 209.386719 204.941406 208.933594 204.871094 C 208.480469 204.804688 208.023438 204.78125 207.566406 204.804688 C 207.109375 204.828125 206.660156 204.894531 206.214844 205.003906 Z M 213.570312 224.785156 C 213.644531 225.085938 213.660156 225.386719 213.613281 225.691406 C 213.570312 225.996094 213.46875 226.285156 213.308594 226.546875 C 213.152344 226.8125 212.949219 227.039062 212.699219 227.222656 C 212.453125 227.40625 212.179688 227.535156 211.878906 227.609375 L 207.371094 228.738281 C 207.070312 228.816406 206.769531 228.828125 206.464844 228.785156 C 206.160156 228.738281 205.875 228.636719 205.609375 228.476562 C 205.34375 228.320312 205.121094 228.113281 204.9375 227.867188 C 204.753906 227.617188 204.625 227.34375 204.546875 227.042969 L 201.148438 213.480469 C 201.074219 213.183594 201.058594 212.878906 201.105469 212.574219 C 201.148438 212.269531 201.25 211.984375 201.410156 211.71875 C 201.566406 211.453125 201.769531 211.230469 202.019531 211.042969 C 202.265625 210.859375 202.539062 210.730469 202.839844 210.65625 L 207.347656 209.527344 C 207.648438 209.453125 207.949219 209.4375 208.253906 209.480469 C 208.558594 209.527344 208.84375 209.628906 209.109375 209.789062 C 209.375 209.949219 209.597656 210.152344 209.78125 210.398438 C 209.964844 210.648438 210.09375 210.921875 210.167969 211.222656 Z M 213.570312 224.785156 " fill-opacity="1" fill-rule="nonzero"/></g></g></g><g clip-path="url(#id7)"><g clip-path="url(#id8)"><g clip-path="url(#id9)"><path fill="rgb(71.369934%, 32.548523%, 20.779419%)" d="M 226.542969 228.738281 C 226.84375 228.664062 227.117188 228.535156 227.363281 228.351562 C 227.609375 228.167969 227.8125 227.945312 227.972656 227.679688 C 228.128906 227.414062 228.230469 227.128906 228.277344 226.824219 C 228.320312 226.515625 228.304688 226.214844 228.230469 225.914062 L 222.566406 203.308594 C 222.492188 203.011719 222.363281 202.734375 222.179688 202.488281 C 221.996094 202.238281 221.769531 202.035156 221.503906 201.878906 C 221.242188 201.71875 220.957031 201.617188 220.652344 201.570312 C 220.347656 201.523438 220.042969 201.539062 219.746094 201.613281 C 219.445312 201.691406 219.171875 201.820312 218.925781 202.003906 C 218.679688 202.1875 218.476562 202.410156 218.316406 202.675781 C 218.160156 202.941406 218.058594 203.226562 218.011719 203.53125 C 217.964844 203.835938 217.980469 204.140625 218.058594 204.441406 L 223.722656 227.042969 C 223.796875 227.34375 223.925781 227.617188 224.109375 227.867188 C 224.292969 228.113281 224.519531 228.320312 224.78125 228.476562 C 225.046875 228.636719 225.332031 228.738281 225.636719 228.785156 C 225.941406 228.828125 226.242188 228.816406 226.542969 228.738281 Z M 226.542969 228.738281 " fill-opacity="1" fill-rule="nonzero"/></g></g></g><g clip-path="url(#id10)"><g clip-path="url(#id11)"><g clip-path="url(#id12)"><path fill="rgb(71.369934%, 32.548523%, 20.779419%)" d="M 237.785156 197.09375 L 233.273438 198.222656 C 232.832031 198.335938 232.402344 198.488281 231.988281 198.683594 C 231.574219 198.882812 231.183594 199.117188 230.816406 199.390625 C 230.449219 199.664062 230.109375 199.96875 229.804688 200.308594 C 229.496094 200.648438 229.226562 201.015625 228.988281 201.410156 C 228.753906 201.800781 228.558594 202.214844 228.40625 202.648438 C 228.25 203.078125 228.140625 203.523438 228.074219 203.976562 C 228.007812 204.429688 227.984375 204.886719 228.007812 205.34375 C 228.03125 205.804688 228.097656 206.253906 228.210938 206.699219 L 231.609375 220.261719 C 231.71875 220.707031 231.875 221.140625 232.070312 221.554688 C 232.265625 221.96875 232.5 222.359375 232.773438 222.730469 C 233.046875 223.097656 233.351562 223.4375 233.691406 223.746094 C 234.03125 224.054688 234.398438 224.324219 234.792969 224.5625 C 235.183594 224.796875 235.597656 224.992188 236.027344 225.148438 C 236.460938 225.304688 236.902344 225.414062 237.355469 225.480469 C 237.808594 225.550781 238.261719 225.574219 238.71875 225.550781 C 239.179688 225.527344 239.628906 225.460938 240.074219 225.351562 L 244.582031 224.21875 C 245.027344 224.109375 245.457031 223.953125 245.871094 223.757812 C 246.285156 223.5625 246.675781 223.328125 247.042969 223.054688 C 247.410156 222.78125 247.746094 222.476562 248.054688 222.136719 C 248.363281 221.792969 248.632812 221.429688 248.867188 221.035156 C 249.105469 220.640625 249.296875 220.226562 249.453125 219.796875 C 249.605469 219.363281 249.71875 218.921875 249.785156 218.46875 C 249.851562 218.011719 249.871094 217.558594 249.851562 217.097656 C 249.828125 216.640625 249.761719 216.1875 249.648438 215.742188 L 246.25 202.179688 C 246.136719 201.734375 245.984375 201.304688 245.789062 200.890625 C 245.59375 200.476562 245.355469 200.082031 245.085938 199.714844 C 244.8125 199.34375 244.503906 199.007812 244.164062 198.699219 C 243.824219 198.390625 243.460938 198.117188 243.066406 197.882812 C 242.671875 197.644531 242.261719 197.449219 241.828125 197.296875 C 241.398438 197.140625 240.957031 197.027344 240.503906 196.960938 C 240.050781 196.894531 239.59375 196.871094 239.136719 196.894531 C 238.679688 196.914062 238.230469 196.984375 237.785156 197.09375 Z M 245.136719 216.871094 C 245.214844 217.171875 245.230469 217.476562 245.183594 217.78125 C 245.136719 218.085938 245.035156 218.371094 244.878906 218.636719 C 244.71875 218.902344 244.515625 219.125 244.269531 219.308594 C 244.023438 219.496094 243.75 219.625 243.449219 219.699219 L 238.941406 220.828125 C 238.640625 220.902344 238.339844 220.917969 238.035156 220.871094 C 237.730469 220.828125 237.445312 220.726562 237.179688 220.566406 C 236.914062 220.40625 236.691406 220.203125 236.507812 219.957031 C 236.324219 219.707031 236.195312 219.433594 236.117188 219.132812 L 232.71875 205.570312 C 232.644531 205.269531 232.628906 204.96875 232.675781 204.664062 C 232.71875 204.355469 232.820312 204.070312 232.980469 203.808594 C 233.136719 203.542969 233.339844 203.316406 233.589844 203.132812 C 233.835938 202.949219 234.109375 202.820312 234.40625 202.746094 L 238.917969 201.613281 C 239.21875 201.539062 239.519531 201.523438 239.824219 201.570312 C 240.128906 201.617188 240.414062 201.71875 240.679688 201.878906 C 240.941406 202.035156 241.167969 202.238281 241.351562 202.488281 C 241.535156 202.738281 241.664062 203.011719 241.738281 203.308594 Z M 245.136719 216.871094 " fill-opacity="1" fill-rule="nonzero"/></g></g></g><g clip-path="url(#id13)"><g clip-path="url(#id14)"><g clip-path="url(#id15)"><path fill="rgb(71.369934%, 32.548523%, 20.779419%)" d="M 258.113281 220.828125 C 258.410156 220.753906 258.683594 220.625 258.933594 220.441406 C 259.179688 220.257812 259.382812 220.03125 259.542969 219.765625 C 259.699219 219.503906 259.800781 219.21875 259.847656 218.910156 C 259.890625 218.605469 259.875 218.304688 259.800781 218.003906 L 254.136719 195.398438 C 254.0625 195.097656 253.933594 194.824219 253.75 194.578125 C 253.5625 194.328125 253.339844 194.125 253.074219 193.964844 C 252.8125 193.808594 252.527344 193.703125 252.222656 193.660156 C 251.917969 193.613281 251.613281 193.628906 251.316406 193.703125 C 251.015625 193.777344 250.742188 193.90625 250.496094 194.089844 C 250.246094 194.277344 250.042969 194.5 249.886719 194.765625 C 249.726562 195.03125 249.625 195.316406 249.582031 195.621094 C 249.535156 195.925781 249.550781 196.230469 249.625 196.527344 L 255.292969 219.132812 C 255.367188 219.433594 255.496094 219.707031 255.679688 219.957031 C 255.863281 220.203125 256.085938 220.40625 256.351562 220.566406 C 256.617188 220.726562 256.902344 220.828125 257.207031 220.875 C 257.511719 220.917969 257.8125 220.902344 258.113281 220.828125 Z M 258.113281 220.828125 " fill-opacity="1" fill-rule="nonzero"/></g></g></g><g clip-path="url(#id16)"><g clip-path="url(#id17)"><g clip-path="url(#id18)"><path fill="rgb(71.369934%, 32.548523%, 20.779419%)" d="M 269.355469 189.183594 L 264.84375 190.3125 C 264.402344 190.425781 263.972656 190.578125 263.558594 190.773438 C 263.144531 190.96875 262.753906 191.203125 262.386719 191.476562 C 262.019531 191.75 261.679688 192.058594 261.371094 192.398438 C 261.066406 192.738281 260.792969 193.105469 260.558594 193.496094 C 260.324219 193.890625 260.128906 194.304688 259.976562 194.734375 C 259.820312 195.167969 259.710938 195.613281 259.644531 196.066406 C 259.578125 196.519531 259.554688 196.976562 259.578125 197.433594 C 259.601562 197.890625 259.667969 198.34375 259.78125 198.789062 L 263.179688 212.351562 C 263.289062 212.796875 263.445312 213.226562 263.640625 213.644531 C 263.835938 214.058594 264.070312 214.449219 264.34375 214.820312 C 264.617188 215.1875 264.921875 215.527344 265.261719 215.835938 C 265.601562 216.140625 265.96875 216.414062 266.359375 216.652344 C 266.753906 216.886719 267.167969 217.082031 267.597656 217.238281 C 268.027344 217.390625 268.472656 217.503906 268.925781 217.570312 C 269.378906 217.636719 269.832031 217.660156 270.289062 217.640625 C 270.746094 217.617188 271.199219 217.550781 271.640625 217.4375 L 276.152344 216.308594 C 276.597656 216.195312 277.027344 216.042969 277.441406 215.847656 C 277.851562 215.652344 278.246094 215.417969 278.613281 215.144531 C 278.980469 214.871094 279.316406 214.5625 279.625 214.222656 C 279.933594 213.882812 280.203125 213.515625 280.4375 213.125 C 280.671875 212.730469 280.867188 212.316406 281.023438 211.886719 C 281.175781 211.453125 281.285156 211.007812 281.351562 210.554688 C 281.421875 210.101562 281.441406 209.644531 281.417969 209.1875 C 281.398438 208.730469 281.328125 208.277344 281.21875 207.832031 L 277.820312 194.269531 C 277.707031 193.824219 277.554688 193.394531 277.359375 192.976562 C 277.160156 192.5625 276.925781 192.171875 276.652344 191.804688 C 276.382812 191.433594 276.074219 191.09375 275.734375 190.785156 C 275.394531 190.480469 275.027344 190.207031 274.636719 189.96875 C 274.242188 189.734375 273.832031 189.539062 273.398438 189.382812 C 272.96875 189.230469 272.527344 189.117188 272.074219 189.050781 C 271.621094 188.984375 271.164062 188.960938 270.707031 188.980469 C 270.25 189.003906 269.800781 189.070312 269.355469 189.183594 Z M 276.707031 208.960938 C 276.785156 209.261719 276.796875 209.5625 276.753906 209.871094 C 276.707031 210.175781 276.605469 210.460938 276.449219 210.726562 C 276.289062 210.992188 276.085938 211.214844 275.839844 211.398438 C 275.59375 211.582031 275.320312 211.710938 275.019531 211.789062 L 270.507812 212.917969 C 270.210938 212.992188 269.910156 213.007812 269.605469 212.960938 C 269.296875 212.917969 269.015625 212.8125 268.75 212.65625 C 268.484375 212.496094 268.261719 212.292969 268.078125 212.042969 C 267.894531 211.796875 267.761719 211.523438 267.6875 211.222656 L 264.289062 197.660156 C 264.214844 197.359375 264.199219 197.058594 264.246094 196.75 C 264.289062 196.445312 264.390625 196.160156 264.550781 195.894531 C 264.707031 195.628906 264.910156 195.40625 265.15625 195.222656 C 265.40625 195.039062 265.679688 194.910156 265.976562 194.832031 L 270.488281 193.703125 C 270.785156 193.628906 271.089844 193.613281 271.394531 193.660156 C 271.699219 193.703125 271.984375 193.808594 272.25 193.964844 C 272.511719 194.125 272.738281 194.328125 272.921875 194.578125 C 273.105469 194.824219 273.234375 195.097656 273.308594 195.398438 Z M 276.707031 208.960938 " fill-opacity="1" fill-rule="nonzero"/></g></g></g><g clip-path="url(#id19)"><g clip-path="url(#id20)"><g clip-path="url(#id21)"><path fill="rgb(71.369934%, 32.548523%, 20.779419%)" d="M 282.929688 224.21875 C 282.628906 224.292969 282.355469 224.425781 282.109375 224.609375 C 281.859375 224.792969 281.65625 225.015625 281.5 225.28125 C 281.339844 225.546875 281.238281 225.832031 281.195312 226.136719 C 281.148438 226.441406 281.164062 226.746094 281.238281 227.046875 L 286.90625 249.648438 C 286.980469 249.949219 287.109375 250.222656 287.292969 250.472656 C 287.476562 250.71875 287.699219 250.925781 287.964844 251.082031 C 288.230469 251.242188 288.515625 251.34375 288.820312 251.390625 C 289.125 251.433594 289.425781 251.421875 289.726562 251.34375 C 290.023438 251.269531 290.296875 251.140625 290.546875 250.957031 C 290.792969 250.773438 290.996094 250.546875 291.15625 250.285156 C 291.3125 250.019531 291.414062 249.734375 291.460938 249.429688 C 291.503906 249.121094 291.488281 248.820312 291.414062 248.519531 L 285.75 225.914062 C 285.675781 225.617188 285.546875 225.339844 285.359375 225.09375 C 285.175781 224.84375 284.953125 224.640625 284.6875 224.480469 C 284.425781 224.324219 284.140625 224.222656 283.835938 224.175781 C 283.53125 224.128906 283.226562 224.144531 282.929688 224.21875 Z M 282.929688 224.21875 " fill-opacity="1" fill-rule="nonzero"/></g></g></g><g clip-path="url(#id22)"><g clip-path="url(#id23)"><g clip-path="url(#id24)"><path fill="rgb(71.369934%, 32.548523%, 20.779419%)" d="M 269.398438 227.609375 L 264.886719 228.742188 C 264.445312 228.851562 264.015625 229.003906 263.601562 229.203125 C 263.1875 229.398438 262.796875 229.632812 262.429688 229.90625 C 262.0625 230.179688 261.722656 230.484375 261.417969 230.824219 C 261.109375 231.164062 260.835938 231.53125 260.601562 231.925781 C 260.367188 232.320312 260.171875 232.730469 260.019531 233.164062 C 259.863281 233.597656 259.753906 234.039062 259.6875 234.492188 C 259.621094 234.945312 259.597656 235.402344 259.621094 235.863281 C 259.644531 236.320312 259.710938 236.773438 259.824219 237.21875 L 263.222656 250.78125 C 263.332031 251.226562 263.488281 251.65625 263.683594 252.070312 C 263.878906 252.484375 264.113281 252.878906 264.386719 253.246094 C 264.660156 253.613281 264.964844 253.953125 265.304688 254.261719 C 265.644531 254.570312 266.011719 254.84375 266.40625 255.078125 C 266.796875 255.316406 267.210938 255.511719 267.640625 255.664062 C 268.074219 255.820312 268.515625 255.929688 268.96875 256 C 269.421875 256.066406 269.875 256.089844 270.332031 256.066406 C 270.789062 256.042969 271.242188 255.976562 271.6875 255.867188 L 276.195312 254.734375 C 276.640625 254.625 277.070312 254.472656 277.484375 254.273438 C 277.898438 254.078125 278.289062 253.84375 278.65625 253.570312 C 279.023438 253.296875 279.359375 252.992188 279.667969 252.652344 C 279.976562 252.3125 280.246094 251.945312 280.480469 251.550781 C 280.71875 251.15625 280.910156 250.746094 281.066406 250.3125 C 281.21875 249.878906 281.328125 249.4375 281.398438 248.984375 C 281.464844 248.53125 281.484375 248.074219 281.464844 247.613281 C 281.441406 247.15625 281.375 246.703125 281.261719 246.257812 L 277.863281 232.695312 C 277.75 232.25 277.597656 231.820312 277.402344 231.40625 C 277.207031 230.992188 276.96875 230.597656 276.699219 230.230469 C 276.425781 229.863281 276.117188 229.523438 275.777344 229.214844 C 275.4375 228.90625 275.074219 228.632812 274.679688 228.398438 C 274.285156 228.160156 273.875 227.964844 273.441406 227.8125 C 273.011719 227.65625 272.570312 227.546875 272.117188 227.476562 C 271.664062 227.410156 271.207031 227.386719 270.75 227.410156 C 270.292969 227.433594 269.84375 227.5 269.398438 227.609375 Z M 276.75 247.390625 C 276.828125 247.6875 276.839844 247.992188 276.796875 248.296875 C 276.75 248.601562 276.648438 248.886719 276.492188 249.152344 C 276.332031 249.417969 276.128906 249.644531 275.882812 249.828125 C 275.636719 250.011719 275.363281 250.140625 275.0625 250.214844 L 270.554688 251.34375 C 270.253906 251.421875 269.953125 251.433594 269.648438 251.390625 C 269.34375 251.34375 269.058594 251.242188 268.792969 251.082031 C 268.527344 250.921875 268.304688 250.71875 268.121094 250.472656 C 267.9375 250.222656 267.808594 249.949219 267.730469 249.648438 L 264.332031 236.085938 C 264.257812 235.789062 264.242188 235.484375 264.289062 235.179688 C 264.332031 234.875 264.433594 234.589844 264.59375 234.324219 C 264.75 234.058594 264.953125 233.832031 265.203125 233.648438 C 265.449219 233.464844 265.722656 233.335938 266.019531 233.261719 L 270.53125 232.132812 C 270.832031 232.054688 271.132812 232.042969 271.4375 232.085938 C 271.742188 232.132812 272.027344 232.234375 272.292969 232.394531 C 272.554688 232.554688 272.78125 232.757812 272.964844 233.003906 C 273.148438 233.253906 273.277344 233.527344 273.351562 233.828125 Z M 276.75 247.390625 " fill-opacity="1" fill-rule="nonzero"/></g></g></g><g clip-path="url(#id25)"><g clip-path="url(#id26)"><g clip-path="url(#id27)"><path fill="rgb(71.369934%, 32.548523%, 20.779419%)" d="M 251.359375 232.132812 C 251.058594 232.207031 250.785156 232.335938 250.539062 232.519531 C 250.292969 232.703125 250.089844 232.929688 249.929688 233.191406 C 249.773438 233.457031 249.671875 233.742188 249.625 234.046875 C 249.578125 234.355469 249.59375 234.65625 249.671875 234.957031 L 255.335938 257.5625 C 255.410156 257.859375 255.539062 258.136719 255.722656 258.382812 C 255.90625 258.632812 256.132812 258.835938 256.394531 258.996094 C 256.660156 259.152344 256.945312 259.253906 257.25 259.300781 C 257.554688 259.347656 257.855469 259.332031 258.15625 259.257812 C 258.457031 259.183594 258.726562 259.050781 258.976562 258.867188 C 259.222656 258.683594 259.425781 258.460938 259.585938 258.195312 C 259.742188 257.929688 259.84375 257.644531 259.890625 257.339844 C 259.933594 257.035156 259.917969 256.730469 259.84375 256.429688 L 254.179688 233.828125 C 254.105469 233.527344 253.976562 233.253906 253.792969 233.003906 C 253.609375 232.757812 253.382812 232.550781 253.117188 232.394531 C 252.855469 232.234375 252.570312 232.132812 252.265625 232.085938 C 251.960938 232.042969 251.65625 232.054688 251.359375 232.132812 Z M 251.359375 232.132812 " fill-opacity="1" fill-rule="nonzero"/></g></g></g><g clip-path="url(#id28)"><g clip-path="url(#id29)"><g clip-path="url(#id30)"><path fill="rgb(71.369934%, 32.548523%, 20.779419%)" d="M 237.828125 235.523438 L 233.320312 236.652344 C 232.875 236.761719 232.445312 236.917969 232.03125 237.113281 C 231.617188 237.308594 231.226562 237.542969 230.859375 237.816406 C 230.492188 238.089844 230.152344 238.398438 229.847656 238.738281 C 229.539062 239.078125 229.269531 239.441406 229.03125 239.835938 C 228.796875 240.230469 228.601562 240.644531 228.449219 241.074219 C 228.296875 241.507812 228.183594 241.949219 228.117188 242.40625 C 228.050781 242.859375 228.027344 243.316406 228.050781 243.773438 C 228.074219 244.230469 228.140625 244.683594 228.253906 245.128906 L 231.652344 258.691406 C 231.761719 259.136719 231.917969 259.566406 232.113281 259.980469 C 232.308594 260.398438 232.542969 260.789062 232.816406 261.15625 C 233.089844 261.527344 233.398438 261.863281 233.734375 262.171875 C 234.074219 262.480469 234.441406 262.753906 234.835938 262.988281 C 235.226562 263.226562 235.640625 263.421875 236.070312 263.578125 C 236.503906 263.730469 236.945312 263.84375 237.398438 263.910156 C 237.851562 263.976562 238.304688 264 238.765625 263.976562 C 239.222656 263.957031 239.671875 263.890625 240.117188 263.777344 L 244.625 262.648438 C 245.070312 262.535156 245.5 262.382812 245.914062 262.1875 C 246.328125 261.988281 246.71875 261.753906 247.085938 261.480469 C 247.453125 261.210938 247.789062 260.902344 248.097656 260.5625 C 248.40625 260.222656 248.675781 259.855469 248.910156 259.460938 C 249.148438 259.070312 249.34375 258.65625 249.496094 258.222656 C 249.648438 257.792969 249.761719 257.347656 249.828125 256.894531 C 249.894531 256.441406 249.917969 255.984375 249.894531 255.527344 C 249.871094 255.066406 249.804688 254.617188 249.691406 254.171875 L 246.292969 240.609375 C 246.179688 240.164062 246.027344 239.730469 245.832031 239.316406 C 245.636719 238.902344 245.402344 238.511719 245.128906 238.140625 C 244.855469 237.773438 244.546875 237.433594 244.207031 237.125 C 243.871094 236.816406 243.503906 236.546875 243.109375 236.308594 C 242.71875 236.074219 242.304688 235.878906 241.875 235.722656 C 241.441406 235.566406 241 235.457031 240.546875 235.390625 C 240.09375 235.320312 239.636719 235.300781 239.179688 235.320312 C 238.722656 235.34375 238.273438 235.410156 237.828125 235.523438 Z M 245.183594 255.300781 C 245.257812 255.601562 245.273438 255.902344 245.226562 256.207031 C 245.183594 256.515625 245.082031 256.800781 244.921875 257.066406 C 244.761719 257.328125 244.5625 257.554688 244.3125 257.738281 C 244.066406 257.921875 243.792969 258.050781 243.492188 258.125 L 238.984375 259.257812 C 238.683594 259.332031 238.382812 259.347656 238.078125 259.300781 C 237.773438 259.253906 237.488281 259.152344 237.222656 258.992188 C 236.957031 258.835938 236.734375 258.632812 236.550781 258.382812 C 236.367188 258.136719 236.238281 257.859375 236.160156 257.5625 L 232.761719 244 C 232.6875 243.699219 232.671875 243.394531 232.71875 243.089844 C 232.761719 242.785156 232.863281 242.5 233.023438 242.234375 C 233.179688 241.96875 233.382812 241.746094 233.632812 241.5625 C 233.878906 241.378906 234.152344 241.246094 234.453125 241.171875 L 238.960938 240.042969 C 239.261719 239.96875 239.5625 239.953125 239.867188 240 C 240.171875 240.042969 240.457031 240.144531 240.722656 240.304688 C 240.988281 240.464844 241.210938 240.667969 241.394531 240.914062 C 241.578125 241.164062 241.707031 241.4375 241.78125 241.738281 Z M 245.183594 255.300781 " fill-opacity="1" fill-rule="nonzero"/></g></g></g><g clip-path="url(#id31)"><g clip-path="url(#id32)"><g clip-path="url(#id33)"><path fill="rgb(71.369934%, 32.548523%, 20.779419%)" d="M 219.789062 240.042969 C 219.488281 240.117188 219.214844 240.246094 218.96875 240.429688 C 218.722656 240.613281 218.519531 240.839844 218.359375 241.105469 C 218.203125 241.367188 218.101562 241.65625 218.054688 241.960938 C 218.011719 242.265625 218.023438 242.566406 218.101562 242.867188 L 223.765625 265.472656 C 223.839844 265.773438 223.96875 266.046875 224.152344 266.292969 C 224.335938 266.542969 224.5625 266.746094 224.824219 266.90625 C 225.089844 267.0625 225.375 267.167969 225.679688 267.210938 C 225.984375 267.257812 226.289062 267.242188 226.585938 267.167969 C 226.886719 267.09375 227.160156 266.964844 227.40625 266.78125 C 227.652344 266.59375 227.855469 266.371094 228.015625 266.105469 C 228.171875 265.839844 228.273438 265.554688 228.320312 265.25 C 228.363281 264.945312 228.351562 264.640625 228.273438 264.34375 L 222.609375 241.738281 C 222.535156 241.4375 222.40625 241.164062 222.222656 240.914062 C 222.039062 240.667969 221.8125 240.464844 221.550781 240.304688 C 221.285156 240.144531 221 240.042969 220.695312 240 C 220.390625 239.953125 220.089844 239.96875 219.789062 240.042969 Z M 219.789062 240.042969 " fill-opacity="1" fill-rule="nonzero"/></g></g></g><g clip-path="url(#id34)"><g clip-path="url(#id35)"><g clip-path="url(#id36)"><path fill="rgb(71.369934%, 32.548523%, 20.779419%)" d="M 206.257812 243.433594 L 201.75 244.5625 C 201.304688 244.675781 200.875 244.828125 200.460938 245.023438 C 200.046875 245.21875 199.65625 245.453125 199.289062 245.726562 C 198.921875 246 198.585938 246.308594 198.277344 246.648438 C 197.96875 246.988281 197.699219 247.355469 197.464844 247.75 C 197.226562 248.140625 197.035156 248.554688 196.878906 248.988281 C 196.726562 249.417969 196.613281 249.863281 196.546875 250.316406 C 196.480469 250.769531 196.460938 251.226562 196.480469 251.683594 C 196.503906 252.144531 196.570312 252.59375 196.683594 253.039062 L 200.082031 266.601562 C 200.195312 267.046875 200.347656 267.476562 200.542969 267.894531 C 200.738281 268.308594 200.972656 268.699219 201.246094 269.070312 C 201.519531 269.4375 201.828125 269.777344 202.167969 270.085938 C 202.507812 270.394531 202.871094 270.664062 203.265625 270.902344 C 203.660156 271.136719 204.070312 271.332031 204.5 271.488281 C 204.933594 271.640625 205.375 271.753906 205.828125 271.820312 C 206.28125 271.890625 206.738281 271.910156 207.195312 271.890625 C 207.652344 271.867188 208.101562 271.800781 208.546875 271.6875 L 213.054688 270.558594 C 213.5 270.445312 213.929688 270.292969 214.34375 270.097656 C 214.757812 269.902344 215.148438 269.667969 215.515625 269.394531 C 215.882812 269.121094 216.222656 268.8125 216.527344 268.472656 C 216.835938 268.132812 217.105469 267.765625 217.34375 267.375 C 217.578125 266.980469 217.773438 266.566406 217.925781 266.136719 C 218.082031 265.703125 218.191406 265.261719 218.257812 264.804688 C 218.324219 264.351562 218.347656 263.894531 218.324219 263.4375 C 218.300781 262.980469 218.234375 262.527344 218.121094 262.082031 L 214.722656 248.519531 C 214.613281 248.074219 214.457031 247.644531 214.261719 247.230469 C 214.066406 246.8125 213.832031 246.421875 213.558594 246.054688 C 213.285156 245.683594 212.980469 245.34375 212.640625 245.039062 C 212.300781 244.730469 211.933594 244.457031 211.539062 244.21875 C 211.148438 243.984375 210.734375 243.789062 210.304688 243.632812 C 209.871094 243.480469 209.429688 243.367188 208.976562 243.300781 C 208.523438 243.234375 208.070312 243.210938 207.613281 243.234375 C 207.152344 243.253906 206.703125 243.320312 206.257812 243.433594 Z M 213.613281 263.210938 C 213.6875 263.511719 213.703125 263.8125 213.65625 264.121094 C 213.613281 264.425781 213.511719 264.710938 213.351562 264.976562 C 213.195312 265.242188 212.992188 265.464844 212.742188 265.648438 C 212.496094 265.832031 212.222656 265.960938 211.921875 266.039062 L 207.414062 267.167969 C 207.113281 267.242188 206.8125 267.257812 206.507812 267.210938 C 206.203125 267.167969 205.917969 267.0625 205.652344 266.90625 C 205.386719 266.746094 205.164062 266.542969 204.980469 266.292969 C 204.796875 266.046875 204.667969 265.773438 204.59375 265.472656 L 201.195312 251.910156 C 201.117188 251.609375 201.101562 251.308594 201.148438 251 C 201.191406 250.695312 201.296875 250.410156 201.453125 250.144531 C 201.613281 249.878906 201.816406 249.65625 202.0625 249.472656 C 202.308594 249.289062 202.582031 249.160156 202.882812 249.085938 L 207.390625 247.953125 C 207.691406 247.878906 207.992188 247.863281 208.296875 247.910156 C 208.601562 247.957031 208.886719 248.058594 209.152344 248.214844 C 209.417969 248.375 209.640625 248.578125 209.824219 248.828125 C 210.007812 249.074219 210.136719 249.347656 210.214844 249.648438 Z M 213.613281 263.210938 " fill-opacity="1" fill-rule="nonzero"/></g></g></g><g clip-path="url(#id37)"><path fill="rgb(90.19928%, 67.83905%, 38.038635%)" d="M 134.960938 284.179688 C 134.960938 284.179688 128.695312 289.304688 127.453125 280.863281 C 126.96875 277.585938 126.796875 273.066406 124.476562 267.707031 C 122.535156 263.226562 121.976562 258.628906 120.910156 253.863281 C 119.695312 248.429688 117.21875 243.566406 114.265625 241.558594 C 107.070312 239.105469 108.621094 232.925781 109.382812 227.90625 C 109.9375 224.269531 109.761719 221.179688 104.367188 218.707031 C 98.976562 216.234375 99.613281 210.09375 100.714844 206.691406 C 102.167969 202.195312 98.6875 197.78125 94.480469 195.617188 C 90.273438 193.449219 89.734375 181.609375 94.136719 176.074219 C 98.535156 170.539062 84.96875 153.023438 84.035156 146.101562 C 83.195312 139.898438 84.101562 123.449219 85.488281 120.15625 C 86.878906 116.859375 98.957031 98.742188 116.035156 94.402344 C 133.109375 90.0625 160.269531 86.050781 182.867188 90.457031 C 205.464844 94.863281 235.308594 103.054688 249.894531 117.371094 C 263.703125 130.925781 278.46875 150.359375 282.550781 168.890625 C 283.113281 171.445312 283.855469 173.953125 284.691406 176.429688 C 286.316406 181.257812 288.535156 188.503906 287.667969 189.875 C 286.351562 191.96875 237.640625 237.183594 134.960938 284.179688 " fill-opacity="1" fill-rule="nonzero"/></g><g clip-path="url(#id38)"><path stroke-linecap="butt" transform="matrix(0.0125735, 0, 0, -0.012601, 83.593667, 285.839806)" fill="none" stroke-linejoin="miter" d="M 4085.679894 131.744953 C 4085.679894 131.744953 3587.048183 -274.968708 3488.253862 394.930851 C 3450.040965 655.016797 3436.060636 1013.681207 3251.520302 1439.304573 C 3097.115342 1794.869031 3052.999639 2159.423349 2968.185647 2537.617454 C 2871.566045 2969.130729 2674.288078 3354.764718 2439.729235 3514.102234 C 1867.157121 3708.7792 1990.494684 4199.191556 2051.076107 4597.535348 C 2095.19181 4886.450844 2081.211482 5131.657023 1652.170738 5327.573969 C 1223.440668 5524.110906 1274.080525 6011.113315 1361.690582 6281.119107 C 1477.261297 6638.233541 1200.450795 6988.528081 865.854937 7160.265404 C 531.259078 7332.002727 488.386071 8271.598082 838.515628 8711.171231 C 1188.334511 9150.434384 109.363835 10540.452719 35.112758 11089.764157 C -31.682144 11582.036485 40.394216 12887.426138 150.683473 13148.752065 C 261.283404 13410.387987 1221.887299 14848.145578 2580.153867 15192.860205 C 3938.420435 15536.954842 6098.536503 15855.629875 7895.785382 15505.64533 C 9693.034261 15155.97078 12066.583341 14506.220907 13226.639921 13369.77862 C 14324.872382 12294.405381 15499.530638 10751.869424 15824.18493 9281.252345 C 15868.92198 9078.515505 15927.639359 8879.498607 15994.123588 8682.961671 C 16123.67463 8299.807643 16300.137442 7724.766605 16231.167822 7615.648306 C 16126.160022 7449.490896 12252.055698 3861.296823 4085.679894 131.744953 Z M 4085.679894 131.744953 " stroke="rgb(7.449341%, 7.058716%, 7.058716%)" stroke-width="18.766001" stroke-opacity="1" stroke-miterlimit="10"/></g><path fill="rgb(90.19928%, 67.83905%, 38.038635%)" d="M 221.679688 238.472656 C 221.609375 238.472656 221.539062 238.445312 221.488281 238.394531 C 209.839844 227.367188 201.191406 210.660156 195.988281 198.582031 C 194.914062 196.089844 193.84375 193.539062 192.8125 191.074219 C 188.152344 179.957031 183.332031 168.464844 176.46875 158.382812 C 169.863281 148.675781 161.519531 140.359375 153.449219 132.316406 C 150.277344 129.15625 147.105469 125.992188 143.933594 122.828125 L 139.28125 118.1875 C 137.605469 116.515625 135.871094 114.785156 133.945312 113.355469 C 130.5 110.792969 125.835938 108.949219 121.320312 107.167969 C 115.949219 105.042969 110.390625 102.847656 106.609375 99.382812 C 106.492188 99.277344 106.484375 99.097656 106.589844 98.980469 C 106.695312 98.867188 106.875 98.859375 106.988281 98.964844 C 110.695312 102.359375 116.203125 104.535156 121.527344 106.640625 C 126.074219 108.4375 130.777344 110.296875 134.285156 112.902344 C 136.242188 114.355469 137.988281 116.101562 139.679688 117.785156 L 144.332031 122.425781 C 147.503906 125.589844 150.675781 128.753906 153.847656 131.914062 C 161.9375 139.976562 170.300781 148.3125 176.9375 158.0625 C 183.832031 168.191406 188.660156 179.714844 193.332031 190.855469 C 194.367188 193.320312 195.433594 195.867188 196.507812 198.359375 C 201.691406 210.386719 210.296875 227.023438 221.875 237.984375 C 221.988281 238.089844 221.992188 238.269531 221.886719 238.382812 C 221.828125 238.445312 221.753906 238.472656 221.679688 238.472656 " fill-opacity="1" fill-rule="nonzero"/><path fill="rgb(90.19928%, 67.83905%, 38.038635%)" d="M 235.171875 229.726562 C 235.101562 229.726562 235.03125 229.703125 234.976562 229.648438 C 227.640625 222.632812 223.359375 212.359375 219.222656 202.425781 C 217.75 198.882812 216.355469 195.539062 214.828125 192.335938 C 211.933594 186.253906 208.378906 179.859375 203.964844 172.789062 C 199.28125 165.289062 194.191406 157.925781 188.839844 150.894531 C 181.648438 141.449219 175.167969 134.152344 168.433594 127.925781 C 152.480469 113.171875 131.96875 101.769531 112.152344 96.632812 C 112 96.59375 111.910156 96.441406 111.949219 96.289062 C 111.988281 96.136719 112.144531 96.046875 112.292969 96.085938 C 132.195312 101.242188 152.796875 112.695312 168.820312 127.511719 C 175.574219 133.757812 182.078125 141.078125 189.289062 150.550781 C 194.652344 157.59375 199.75 164.976562 204.441406 172.488281 C 208.871094 179.578125 212.433594 185.992188 215.339844 192.09375 C 216.871094 195.308594 218.265625 198.660156 219.746094 202.207031 C 223.859375 212.085938 228.117188 222.304688 235.367188 229.238281 C 235.480469 229.347656 235.484375 229.527344 235.378906 229.640625 C 235.324219 229.699219 235.25 229.726562 235.171875 229.726562 " fill-opacity="1" fill-rule="nonzero"/><path fill="rgb(90.19928%, 67.83905%, 38.038635%)" d="M 246.789062 222.171875 C 246.660156 222.171875 246.546875 222.085938 246.515625 221.957031 C 242.914062 207.636719 234.230469 194.660156 225.835938 182.113281 C 222.039062 176.4375 218.113281 170.570312 214.761719 164.710938 C 213.816406 163.058594 212.894531 161.359375 212.003906 159.714844 C 211.003906 157.871094 209.972656 155.957031 208.898438 154.113281 C 204.113281 145.871094 198.089844 138.058594 191.003906 130.894531 C 185.027344 124.855469 178.414062 119.398438 171.351562 114.679688 C 168.753906 112.945312 165.285156 110.746094 161.445312 109.132812 C 158.542969 107.914062 155.453125 107.035156 152.460938 106.1875 C 151.691406 105.964844 150.921875 105.746094 150.152344 105.523438 C 144.351562 103.828125 138.441406 101.085938 132.726562 98.4375 C 129.292969 96.84375 125.738281 95.195312 122.332031 93.839844 C 122.183594 93.78125 122.113281 93.617188 122.171875 93.472656 C 122.230469 93.328125 122.394531 93.253906 122.539062 93.3125 C 125.960938 94.675781 129.523438 96.324219 132.964844 97.921875 C 138.660156 100.5625 144.550781 103.292969 150.3125 104.980469 C 151.078125 105.203125 151.847656 105.421875 152.617188 105.640625 C 155.621094 106.496094 158.730469 107.378906 161.664062 108.609375 C 165.546875 110.242188 169.046875 112.460938 171.664062 114.207031 C 178.761719 118.945312 185.402344 124.425781 191.40625 130.496094 C 198.527344 137.695312 204.578125 145.546875 209.386719 153.828125 C 210.464844 155.679688 211.5 157.59375 212.5 159.445312 C 213.390625 161.085938 214.308594 162.785156 215.25 164.425781 C 218.59375 170.269531 222.515625 176.128906 226.308594 181.796875 C 234.730469 194.386719 243.4375 207.402344 247.0625 221.816406 C 247.101562 221.96875 247.011719 222.125 246.859375 222.160156 C 246.835938 222.167969 246.8125 222.171875 246.789062 222.171875 " fill-opacity="1" fill-rule="nonzero"/><path fill="rgb(90.19928%, 67.83905%, 38.038635%)" d="M 262.867188 210.699219 C 262.75 210.699219 262.640625 210.628906 262.597656 210.511719 C 262.332031 209.75 262.054688 208.972656 261.777344 208.179688 C 258.898438 199.992188 255.3125 189.800781 250.671875 182.707031 C 248.347656 179.152344 245.597656 175.816406 242.941406 172.585938 L 208.234375 130.4375 C 204.878906 126.363281 201.410156 122.152344 197.328125 118.679688 C 192.859375 114.886719 187.753906 112.054688 183.347656 109.789062 C 173.351562 104.648438 153.835938 95.429688 135.4375 91.472656 C 135.285156 91.4375 135.1875 91.289062 135.21875 91.132812 C 135.253906 90.980469 135.402344 90.882812 135.554688 90.917969 C 154.015625 94.890625 173.585938 104.128906 183.609375 109.285156 C 188.042969 111.566406 193.183594 114.417969 197.691406 118.25 C 201.816406 121.753906 205.300781 125.984375 208.671875 130.078125 L 243.375 172.226562 C 246.042969 175.464844 248.800781 178.816406 251.144531 182.398438 C 255.824219 189.546875 259.417969 199.773438 262.3125 207.992188 C 262.589844 208.785156 262.863281 209.5625 263.132812 210.320312 C 263.183594 210.46875 263.109375 210.628906 262.960938 210.683594 C 262.929688 210.695312 262.898438 210.699219 262.867188 210.699219 " fill-opacity="1" fill-rule="nonzero"/><path fill="rgb(90.19928%, 67.83905%, 38.038635%)" d="M 273.890625 201.964844 C 273.789062 201.964844 273.691406 201.910156 273.640625 201.8125 C 273.117188 200.828125 272.507812 199.667969 271.898438 198.503906 C 271.285156 197.339844 270.675781 196.179688 270.15625 195.195312 C 263.015625 181.667969 255.632812 167.679688 247.050781 154.707031 C 242.097656 147.222656 236.632812 139.90625 231.351562 132.835938 C 226.3125 126.089844 221.101562 119.113281 214.097656 114.167969 C 209.191406 110.710938 203.40625 108.316406 198.300781 106.203125 C 195.800781 105.167969 193.285156 104.085938 190.617188 102.941406 C 176.929688 97.066406 161.410156 90.410156 147.0625 89.972656 C 146.90625 89.964844 146.785156 89.835938 146.789062 89.679688 C 146.792969 89.527344 146.917969 89.40625 147.070312 89.40625 C 147.074219 89.40625 147.078125 89.40625 147.078125 89.40625 C 161.535156 89.847656 177.105469 96.527344 190.839844 102.421875 C 193.503906 103.566406 196.019531 104.644531 198.519531 105.679688 C 203.648438 107.800781 209.464844 110.210938 214.421875 113.707031 C 221.5 118.699219 226.738281 125.710938 231.804688 132.496094 C 237.09375 139.574219 242.5625 146.894531 247.523438 154.394531 C 256.121094 167.390625 263.511719 181.390625 270.65625 194.929688 C 271.175781 195.914062 271.785156 197.078125 272.398438 198.238281 C 273.007812 199.402344 273.621094 200.566406 274.140625 201.546875 C 274.210938 201.6875 274.160156 201.859375 274.019531 201.929688 C 273.980469 201.953125 273.933594 201.964844 273.890625 201.964844 " fill-opacity="1" fill-rule="nonzero"/><path fill="rgb(90.19928%, 67.83905%, 38.038635%)" d="M 282.40625 195.246094 C 282.300781 195.246094 282.203125 195.191406 282.152344 195.089844 C 279.972656 190.753906 277.628906 186.109375 275.355469 181.621094 C 273.085938 177.132812 270.734375 172.492188 268.554688 168.152344 C 265.96875 162.992188 263.289062 157.660156 260.304688 152.609375 C 249.492188 134.339844 234.148438 118.949219 215.929688 108.09375 C 203.421875 100.640625 187.78125 94.335938 170.707031 89.859375 C 170.554688 89.820312 170.464844 89.664062 170.503906 89.511719 C 170.542969 89.359375 170.699219 89.269531 170.847656 89.308594 C 187.976562 93.800781 203.664062 100.128906 216.21875 107.605469 C 234.519531 118.507812 249.933594 133.96875 260.789062 152.324219 C 263.785156 157.386719 266.46875 162.730469 269.0625 167.898438 C 271.238281 172.234375 273.589844 176.875 275.859375 181.367188 C 278.132812 185.855469 280.480469 190.496094 282.660156 194.835938 C 282.726562 194.976562 282.671875 195.144531 282.53125 195.21875 C 282.492188 195.238281 282.449219 195.246094 282.40625 195.246094 " fill-opacity="1" fill-rule="nonzero"/><path fill="rgb(90.19928%, 67.83905%, 38.038635%)" d="M 195.828125 227.726562 C 195.738281 227.726562 195.648438 227.683594 195.59375 227.601562 C 189.746094 218.898438 185.050781 210.550781 179.800781 200.695312 C 178.960938 199.109375 178.128906 197.484375 177.328125 195.917969 C 176.121094 193.554688 174.875 191.109375 173.558594 188.761719 C 168.199219 179.207031 161.289062 170.472656 154.609375 162.03125 L 145.328125 150.300781 C 142.457031 146.667969 139.488281 142.917969 135.96875 139.800781 C 135.796875 139.644531 135.625 139.492188 135.449219 139.339844 C 133.976562 138.054688 132.457031 136.726562 131.789062 134.867188 C 131.503906 134.070312 131.398438 133.234375 131.296875 132.425781 C 131.246094 132.011719 131.191406 131.582031 131.113281 131.171875 C 129.929688 124.867188 123.558594 121.214844 116.847656 118.207031 C 115.523438 117.613281 114.035156 117.058594 112.464844 116.46875 C 106.667969 114.300781 100.09375 111.839844 97.3125 105.972656 C 97.246094 105.832031 97.304688 105.660156 97.445312 105.59375 C 97.585938 105.527344 97.753906 105.589844 97.824219 105.730469 C 100.507812 111.390625 106.964844 113.804688 112.664062 115.9375 C 114.242188 116.53125 115.738281 117.089844 117.082031 117.691406 C 123.929688 120.761719 130.4375 124.503906 131.667969 131.066406 C 131.75 131.496094 131.804688 131.929688 131.855469 132.351562 C 131.960938 133.167969 132.058594 133.941406 132.320312 134.675781 C 132.941406 136.394531 134.402344 137.675781 135.820312 138.914062 C 135.996094 139.066406 136.171875 139.222656 136.34375 139.375 C 139.898438 142.523438 142.882812 146.296875 145.769531 149.945312 L 155.050781 161.675781 C 161.746094 170.140625 168.671875 178.886719 174.050781 188.480469 C 175.375 190.84375 176.621094 193.289062 177.832031 195.65625 C 178.632812 197.226562 179.460938 198.847656 180.300781 200.425781 C 185.542969 210.269531 190.226562 218.601562 196.0625 227.285156 C 196.152344 227.414062 196.117188 227.589844 195.988281 227.679688 C 195.9375 227.710938 195.882812 227.726562 195.828125 227.726562 " fill-opacity="1" fill-rule="nonzero"/><path fill="rgb(90.19928%, 67.83905%, 38.038635%)" d="M 190.015625 256.976562 C 189.957031 256.976562 189.894531 256.957031 189.84375 256.914062 C 185.789062 253.710938 183.492188 248.902344 181.269531 244.246094 L 181.136719 243.972656 C 176.0625 233.351562 170.460938 222.773438 165.046875 212.542969 L 155.660156 194.816406 C 152.679688 189.1875 149.597656 183.367188 145.292969 178.535156 C 144.519531 177.667969 143.691406 176.8125 142.890625 175.988281 C 141.007812 174.046875 139.054688 172.035156 137.648438 169.660156 C 137.023438 168.601562 136.5 167.457031 135.992188 166.355469 C 135.144531 164.5 134.265625 162.582031 132.886719 161.074219 C 131.914062 160.011719 130.679688 159.136719 129.484375 158.292969 C 127.65625 157.003906 125.769531 155.667969 124.765625 153.617188 C 123.84375 151.742188 123.84375 149.613281 123.84375 147.554688 C 123.839844 145.679688 123.839844 143.742188 123.128906 142.046875 C 122.292969 140.042969 120.535156 138.53125 118.984375 137.195312 C 114.84375 133.632812 109.902344 129.210938 105.121094 124.933594 C 100.34375 120.660156 95.402344 116.238281 91.265625 112.679688 C 91.148438 112.578125 91.132812 112.398438 91.234375 112.277344 C 91.339844 112.160156 91.515625 112.144531 91.632812 112.246094 C 95.777344 115.8125 100.71875 120.234375 105.5 124.511719 C 110.277344 128.785156 115.214844 133.207031 119.351562 136.765625 C 120.949219 138.140625 122.761719 139.703125 123.652344 141.828125 C 124.40625 143.628906 124.40625 145.625 124.40625 147.554688 C 124.410156 149.640625 124.410156 151.609375 125.273438 153.371094 C 126.214844 155.289062 127.960938 156.523438 129.808594 157.832031 C 131.027344 158.691406 132.289062 159.582031 133.304688 160.691406 C 134.742188 162.265625 135.640625 164.222656 136.507812 166.117188 C 137.007812 167.207031 137.523438 168.335938 138.136719 169.371094 C 139.507812 171.691406 141.433594 173.675781 143.296875 175.59375 C 144.101562 176.421875 144.933594 177.28125 145.714844 178.15625 C 150.066406 183.042969 153.164062 188.890625 156.160156 194.550781 L 165.542969 212.277344 C 170.964844 222.511719 176.566406 233.097656 181.648438 243.726562 L 181.777344 244.003906 C 183.972656 248.597656 186.242188 253.347656 190.191406 256.46875 C 190.316406 256.566406 190.335938 256.746094 190.238281 256.867188 C 190.183594 256.9375 190.101562 256.976562 190.015625 256.976562 " fill-opacity="1" fill-rule="nonzero"/><path fill="rgb(90.19928%, 67.83905%, 38.038635%)" d="M 175.035156 264.792969 C 174.9375 264.792969 174.847656 264.746094 174.792969 264.660156 C 173.15625 262.019531 171.324219 259.023438 169.554688 256.128906 C 167.785156 253.230469 165.957031 250.238281 164.320312 247.601562 L 134.964844 200.332031 C 132.203125 195.882812 129.347656 191.285156 127.632812 186.214844 C 127.261719 185.117188 126.925781 183.964844 126.605469 182.851562 C 125.460938 178.90625 124.28125 174.824219 121.183594 172.28125 C 120.828125 171.992188 120.441406 171.714844 120.066406 171.449219 C 119.21875 170.84375 118.339844 170.21875 117.71875 169.339844 C 117.105469 168.46875 116.800781 167.410156 116.527344 166.476562 C 115.476562 162.855469 114.390625 159.109375 114.09375 155.265625 C 114.0625 154.867188 114.039062 154.472656 114.015625 154.074219 C 113.957031 153.003906 113.894531 151.894531 113.660156 150.84375 C 112.699219 146.574219 109.128906 143.558594 105.671875 140.644531 C 105.210938 140.257812 104.753906 139.867188 104.304688 139.480469 C 99.132812 135.023438 94.003906 125.613281 90.257812 118.738281 C 89.839844 117.96875 89.441406 117.238281 89.066406 116.558594 C 88.988281 116.421875 89.039062 116.25 89.175781 116.171875 C 89.3125 116.097656 89.484375 116.148438 89.558594 116.285156 C 89.9375 116.964844 90.335938 117.695312 90.753906 118.46875 C 94.480469 125.300781 99.582031 134.660156 104.671875 139.050781 C 105.121094 139.4375 105.578125 139.824219 106.039062 140.210938 C 109.566406 143.1875 113.210938 146.265625 114.210938 150.722656 C 114.457031 151.816406 114.519531 152.949219 114.582031 154.042969 C 114.605469 154.433594 114.625 154.828125 114.65625 155.21875 C 114.949219 159.007812 116.027344 162.726562 117.070312 166.320312 C 117.34375 167.253906 117.621094 168.21875 118.179688 169.011719 C 118.746094 169.8125 119.546875 170.382812 120.394531 170.988281 C 120.777344 171.261719 121.171875 171.539062 121.539062 171.84375 C 124.773438 174.5 125.980469 178.664062 127.148438 182.691406 C 127.46875 183.800781 127.800781 184.949219 128.167969 186.03125 C 129.863281 191.042969 132.703125 195.613281 135.445312 200.03125 L 164.800781 247.300781 C 166.4375 249.9375 168.265625 252.933594 170.039062 255.832031 C 171.808594 258.726562 173.636719 261.722656 175.273438 264.359375 C 175.355469 264.492188 175.316406 264.667969 175.183594 264.75 C 175.136719 264.78125 175.085938 264.792969 175.035156 264.792969 " fill-opacity="1" fill-rule="nonzero"/><path fill="rgb(90.19928%, 67.83905%, 38.038635%)" d="M 159.589844 272.507812 C 159.492188 272.507812 159.394531 272.453125 159.34375 272.359375 C 156.304688 266.890625 152.988281 261.011719 149.78125 255.328125 C 146.574219 249.644531 143.257812 243.765625 140.21875 238.300781 C 139.652344 237.277344 139.0625 236.214844 138.195312 235.425781 C 137.585938 234.867188 136.867188 234.46875 136.109375 234.042969 C 135.6875 233.808594 135.25 233.566406 134.835938 233.292969 C 131.46875 231.078125 129.347656 226.820312 128.535156 220.644531 C 128.390625 219.550781 128.273438 218.421875 128.164062 217.335938 C 127.800781 213.722656 127.421875 209.988281 125.859375 206.710938 C 125.0625 205.039062 123.957031 203.492188 122.886719 201.996094 C 121.585938 200.171875 120.242188 198.289062 119.421875 196.15625 C 118.753906 194.402344 118.449219 192.515625 118.15625 190.683594 C 117.757812 188.214844 117.382812 185.878906 116.183594 183.816406 C 115.039062 181.84375 113.226562 180.332031 111.46875 178.871094 C 109.851562 177.523438 108.179688 176.128906 106.980469 174.351562 C 104.882812 171.238281 104.503906 167.394531 104.136719 163.671875 C 103.792969 160.1875 103.4375 156.585938 101.65625 153.636719 C 100.84375 152.296875 99.746094 151.113281 98.683594 149.96875 C 98.363281 149.621094 98.039062 149.277344 97.726562 148.925781 C 91.507812 141.988281 87.308594 127.84375 86.988281 118.714844 C 86.980469 118.558594 87.105469 118.429688 87.257812 118.421875 C 87.402344 118.417969 87.546875 118.539062 87.550781 118.695312 C 87.871094 127.722656 92.011719 141.703125 98.148438 148.546875 C 98.460938 148.894531 98.777344 149.238281 99.097656 149.582031 C 100.179688 150.746094 101.300781 151.949219 102.140625 153.34375 C 103.988281 156.402344 104.351562 160.070312 104.699219 163.617188 C 105.058594 167.265625 105.429688 171.039062 107.449219 174.035156 C 108.601562 175.742188 110.242188 177.113281 111.832031 178.433594 C 113.625 179.929688 115.476562 181.472656 116.671875 183.527344 C 117.925781 185.683594 118.324219 188.179688 118.714844 190.59375 C 119 192.394531 119.300781 194.253906 119.953125 195.953125 C 120.742188 198.019531 122.066406 199.871094 123.347656 201.664062 C 124.433594 203.183594 125.554688 204.75 126.371094 206.464844 C 127.976562 209.832031 128.359375 213.617188 128.726562 217.277344 C 128.835938 218.363281 128.949219 219.484375 129.09375 220.570312 C 129.886719 226.578125 131.921875 230.695312 135.148438 232.820312 C 135.542969 233.078125 135.972656 233.320312 136.382812 233.550781 C 137.136719 233.96875 137.917969 234.40625 138.574219 235.003906 C 139.511719 235.859375 140.125 236.960938 140.714844 238.023438 C 143.753906 243.492188 147.066406 249.367188 150.273438 255.050781 C 153.480469 260.734375 156.796875 266.613281 159.835938 272.082031 C 159.914062 272.222656 159.863281 272.394531 159.726562 272.46875 C 159.683594 272.492188 159.636719 272.507812 159.589844 272.507812 " fill-opacity="1" fill-rule="nonzero"/><path fill="rgb(90.19928%, 67.83905%, 38.038635%)" d="M 140.804688 281.578125 C 140.671875 281.578125 140.550781 281.480469 140.527344 281.34375 C 139.183594 273.78125 136.210938 265.382812 132.769531 259.421875 C 132.109375 258.277344 131.398438 257.132812 130.714844 256.027344 C 129.132812 253.480469 127.5 250.847656 126.339844 248.019531 C 126.074219 247.375 125.824219 246.699219 125.582031 246.046875 C 124.632812 243.476562 123.648438 240.816406 121.515625 239.207031 C 120.894531 238.738281 120.171875 238.363281 119.472656 238 C 118.4375 237.460938 117.367188 236.90625 116.554688 236.019531 C 114.1875 233.441406 114.972656 229.453125 115.894531 225.921875 C 117.089844 221.335938 116.664062 218.203125 114.628906 216.609375 C 113.859375 216.007812 112.882812 215.667969 111.933594 215.339844 C 110.75 214.925781 109.527344 214.503906 108.640625 213.5625 C 107.722656 212.585938 107.25 211.128906 107.191406 209.101562 C 107.128906 207.035156 107.410156 204.953125 107.683594 202.941406 C 107.953125 200.949219 108.230469 198.890625 108.167969 196.867188 C 108.054688 193.011719 106.132812 188.460938 102.191406 187.566406 C 101.980469 187.519531 101.765625 187.480469 101.550781 187.441406 C 100.855469 187.320312 100.132812 187.195312 99.546875 186.742188 C 98.382812 185.839844 98.359375 184.175781 98.492188 182.667969 L 99.570312 170.414062 C 99.695312 168.972656 99.828125 167.484375 99.535156 166.058594 C 99.144531 164.144531 98.019531 162.453125 96.800781 160.746094 C 96.53125 160.367188 96.253906 159.984375 95.980469 159.601562 C 91.5625 153.4375 86.992188 147.066406 87.335938 139.628906 C 87.34375 139.472656 87.480469 139.355469 87.632812 139.359375 C 87.789062 139.367188 87.90625 139.5 87.902344 139.65625 C 87.566406 146.894531 92.078125 153.1875 96.441406 159.269531 C 96.714844 159.65625 96.988281 160.035156 97.261719 160.417969 C 98.515625 162.175781 99.675781 163.921875 100.089844 165.941406 C 100.398438 167.449219 100.261719 168.984375 100.132812 170.464844 L 99.058594 182.71875 C 98.9375 184.074219 98.945312 185.558594 99.894531 186.292969 C 100.371094 186.660156 100.992188 186.769531 101.648438 186.886719 C 101.871094 186.925781 102.097656 186.964844 102.316406 187.011719 C 106.550781 187.972656 108.613281 192.785156 108.734375 196.847656 C 108.796875 198.921875 108.515625 201.003906 108.242188 203.015625 C 107.972656 205.007812 107.695312 207.0625 107.753906 209.085938 C 107.808594 210.96875 108.234375 212.304688 109.054688 213.171875 C 109.84375 214.011719 110.949219 214.398438 112.121094 214.804688 C 113.109375 215.148438 114.132812 215.503906 114.976562 216.160156 C 117.207031 217.910156 117.703125 221.238281 116.441406 226.066406 C 115.558594 229.453125 114.796875 233.265625 116.96875 235.636719 C 117.714844 236.449219 118.695312 236.957031 119.730469 237.496094 C 120.453125 237.867188 121.195312 238.257812 121.859375 238.753906 C 124.121094 240.464844 125.132812 243.203125 126.113281 245.847656 C 126.355469 246.496094 126.601562 247.167969 126.863281 247.804688 C 128.003906 250.585938 129.625 253.199219 131.195312 255.726562 C 131.882812 256.839844 132.59375 257.984375 133.257812 259.136719 C 136.730469 265.152344 139.730469 273.621094 141.082031 281.246094 C 141.113281 281.398438 141.007812 281.542969 140.855469 281.574219 C 140.839844 281.574219 140.820312 281.578125 140.804688 281.578125 " fill-opacity="1" fill-rule="nonzero"/><path fill="rgb(90.19928%, 67.83905%, 38.038635%)" d="M 189.332031 232.457031 C 189.332031 232.457031 201.714844 222.695312 202.542969 223.355469 C 203.371094 224.019531 215.464844 241.746094 215.464844 241.746094 L 201.652344 250.382812 L 189.296875 233.070312 L 189.332031 232.457031 " fill-opacity="1" fill-rule="nonzero"/><g fill="rgb(0%, 0%, 0%)" fill-opacity="1"><g transform="translate(120.440401, 209.784046)"><g><path d="M 70.363281 -20.191406 C 69.496094 -20.535156 68.542969 -20.191406 68.195312 -19.324219 C 58.316406 1.644531 48.785156 17.070312 39.773438 26.515625 C 32.148438 34.488281 25.300781 37.78125 19.84375 36.132812 C 14.902344 34.574219 11.089844 28.769531 9.183594 19.757812 C 7.019531 10.050781 7.105469 -2.425781 9.359375 -16.289062 C 12.566406 -36.046875 21.835938 -64.035156 32.667969 -77.035156 C 35.875 -80.847656 38.648438 -82.667969 40.292969 -81.800781 C 44.367188 -79.808594 46.011719 -63.257812 37.085938 -23.136719 C 36.828125 -22.269531 37.433594 -21.402344 38.300781 -21.144531 C 39.253906 -20.96875 40.121094 -21.578125 40.292969 -22.441406 C 46.097656 -48.351562 51.039062 -80.242188 41.765625 -84.832031 C 39.511719 -85.960938 35.699219 -85.871094 30.15625 -79.199219 C 23.222656 -70.882812 17.9375 -58.492188 14.730469 -49.480469 C 10.832031 -38.820312 7.710938 -26.863281 6.066406 -16.8125 C 1.214844 12.910156 6.414062 35.441406 18.890625 39.339844 C 20.101562 39.6875 21.402344 39.859375 22.703125 39.859375 C 36.394531 39.859375 53.8125 19.238281 71.140625 -17.9375 C 71.574219 -18.804688 71.226562 -19.757812 70.363281 -20.191406 Z M 70.363281 -20.191406 "/></g></g></g><g fill="rgb(0%, 0%, 0%)" fill-opacity="1"><g transform="translate(187.332987, 209.784046)"><g><path d="M 25.300781 -19.671875 C 24.523438 -20.191406 23.570312 -19.929688 23.050781 -19.148438 C 17.242188 -9.792969 7.539062 -0.953125 4.59375 -2.167969 C 4.246094 -2.339844 1.472656 -3.984375 5.285156 -18.628906 C 5.460938 -19.582031 4.9375 -20.449219 4.074219 -20.710938 C 3.121094 -20.882812 2.253906 -20.363281 1.992188 -19.496094 C -1.125 -7.277344 -0.691406 -0.78125 3.207031 0.867188 C 3.8125 1.125 4.417969 1.214844 5.027344 1.214844 C 11.523438 1.214844 21.488281 -10.398438 25.910156 -17.417969 C 26.34375 -18.195312 26.082031 -19.238281 25.300781 -19.671875 Z M 4.851562 -26.6875 C 9.273438 -26.429688 9.183594 -31.976562 5.632812 -30.761719 C 3.8125 -30.242188 1.472656 -26.863281 4.851562 -26.6875 Z M 4.851562 -26.6875 "/></g></g></g><g fill="rgb(0%, 0%, 0%)" fill-opacity="1"><g transform="translate(209.255044, 209.784046)"><g><path d="M 77.378906 -34.488281 C 77.121094 -35.355469 76.167969 -35.875 75.300781 -35.527344 C 70.449219 -33.96875 63.601562 -31.886719 55.542969 -29.460938 C 59.964844 -52.339844 64.554688 -75.90625 66.894531 -85.09375 C 67.070312 -85.960938 66.550781 -86.914062 65.683594 -87.085938 C 64.816406 -87.347656 63.863281 -86.824219 63.691406 -85.960938 C 61.261719 -76.425781 56.410156 -51.90625 51.90625 -28.421875 C 51.296875 -28.25 50.691406 -27.988281 50 -27.816406 C 39.511719 -24.695312 27.382812 -20.96875 15.769531 -17.332031 C 18.457031 -30.414062 21.664062 -46.011719 25.5625 -64.46875 L 25.996094 -66.289062 C 27.382812 -73.046875 26.949219 -76.773438 24.609375 -78.246094 C 22.617188 -79.375 19.84375 -78.507812 16.464844 -75.5625 C 8.40625 -68.542969 -4.417969 -48.699219 -0.78125 -39.945312 C 0.0859375 -37.867188 2.167969 -35.441406 7.453125 -35.789062 C 8.40625 -35.875 9.097656 -36.652344 9.011719 -37.605469 C 8.925781 -38.472656 8.144531 -39.167969 7.277344 -39.167969 C 3.292969 -38.90625 2.511719 -40.640625 2.253906 -41.246094 C 1.125 -44.105469 2.597656 -49.910156 6.324219 -56.757812 C 9.792969 -63.167969 14.644531 -69.496094 18.628906 -72.960938 C 21.402344 -75.386719 22.703125 -75.472656 22.875 -75.300781 C 22.964844 -75.300781 24.261719 -74.261719 22.703125 -66.980469 L 22.355469 -65.164062 C 20.710938 -57.539062 16.464844 -37.519531 12.132812 -16.203125 C 6.152344 -14.296875 0.261719 -12.476562 -5.027344 -10.660156 C -14.210938 -7.625 -21.054688 -5.113281 -25.910156 -3.03125 C -33.707031 0.261719 -35.179688 1.820312 -35.09375 3.554688 C -35.007812 4.417969 -34.488281 5.632812 -32.148438 6.066406 C -32.0625 6.066406 -31.976562 6.066406 -31.886719 6.066406 C -31.109375 6.066406 -30.414062 5.546875 -30.242188 4.765625 C -30.070312 4.074219 -30.414062 3.378906 -30.933594 3.03125 C -28.683594 1.644531 -22.007812 -1.558594 -2.078125 -8.144531 C 2.167969 -9.53125 6.671875 -11.003906 11.351562 -12.476562 C 10.484375 -8.230469 9.617188 -3.898438 8.75 0.347656 C 5.71875 15.425781 3.378906 27.296875 1.90625 35.789062 C 1.039062 40.726562 0.347656 44.539062 0 47.140625 C -0.519531 50.953125 -0.78125 52.859375 1.039062 53.378906 C 1.214844 53.464844 1.386719 53.464844 1.558594 53.464844 C 2.945312 53.464844 3.554688 51.730469 4.246094 49.910156 C 4.507812 49.046875 4.074219 48.179688 3.292969 47.832031 C 4.074219 41.765625 6.84375 26.082031 14.992188 -13.605469 C 27.207031 -17.417969 39.945312 -21.316406 50.953125 -24.609375 C 51.039062 -24.695312 51.125 -24.695312 51.210938 -24.695312 C 50.085938 -18.890625 49.046875 -13.171875 48.003906 -7.886719 C 45.40625 6.066406 43.152344 18.023438 42.113281 22.789062 C 41.941406 23.742188 42.460938 24.609375 43.414062 24.78125 C 43.5 24.78125 43.671875 24.78125 43.757812 24.78125 C 44.539062 24.78125 45.234375 24.261719 45.40625 23.484375 C 46.359375 18.71875 48.527344 7.277344 51.296875 -7.277344 C 52.425781 -13.085938 53.636719 -19.410156 54.851562 -25.824219 C 63.601562 -28.421875 71.140625 -30.675781 76.339844 -32.40625 C 77.207031 -32.667969 77.726562 -33.621094 77.378906 -34.488281 Z M 77.378906 -34.488281 "/></g></g></g></svg>