<svg xmlns="http://www.w3.org/2000/svg" xmlns:xlink="http://www.w3.org/1999/xlink" width="500" zoomAndPan="magnify" viewBox="0 0 375 374.999991" height="500" preserveAspectRatio="xMidYMid meet" version="1.0"><defs><g/><clipPath id="id1"><path d="M 187 196 L 192 196 L 192 208 L 187 208 Z M 187 196 " clip-rule="nonzero"/></clipPath><clipPath id="id2"><path d="M 186.835938 196.972656 L 224.667969 187.492188 L 231.230469 213.683594 L 193.398438 223.164062 Z M 186.835938 196.972656 " clip-rule="nonzero"/></clipPath><clipPath id="id3"><path d="M 186.835938 196.972656 L 224.667969 187.492188 L 231.230469 213.683594 L 193.398438 223.164062 Z M 186.835938 196.972656 " clip-rule="nonzero"/></clipPath><clipPath id="id4"><path d="M 191 194 L 201 194 L 201 207 L 191 207 Z M 191 194 " clip-rule="nonzero"/></clipPath><clipPath id="id5"><path d="M 186.835938 196.972656 L 224.667969 187.492188 L 231.230469 213.683594 L 193.398438 223.164062 Z M 186.835938 196.972656 " clip-rule="nonzero"/></clipPath><clipPath id="id6"><path d="M 186.835938 196.972656 L 224.667969 187.492188 L 231.230469 213.683594 L 193.398438 223.164062 Z M 186.835938 196.972656 " clip-rule="nonzero"/></clipPath><clipPath id="id7"><path d="M 200 193 L 205 193 L 205 205 L 200 205 Z M 200 193 " clip-rule="nonzero"/></clipPath><clipPath id="id8"><path d="M 186.835938 196.972656 L 224.667969 187.492188 L 231.230469 213.683594 L 193.398438 223.164062 Z M 186.835938 196.972656 " clip-rule="nonzero"/></clipPath><clipPath id="id9"><path d="M 186.835938 196.972656 L 224.667969 187.492188 L 231.230469 213.683594 L 193.398438 223.164062 Z M 186.835938 196.972656 " clip-rule="nonzero"/></clipPath><clipPath id="id10"><path d="M 204 191 L 214 191 L 214 204 L 204 204 Z M 204 191 " clip-rule="nonzero"/></clipPath><clipPath id="id11"><path d="M 186.835938 196.972656 L 224.667969 187.492188 L 231.230469 213.683594 L 193.398438 223.164062 Z M 186.835938 196.972656 " clip-rule="nonzero"/></clipPath><clipPath id="id12"><path d="M 186.835938 196.972656 L 224.667969 187.492188 L 231.230469 213.683594 L 193.398438 223.164062 Z M 186.835938 196.972656 " clip-rule="nonzero"/></clipPath><clipPath id="id13"><path d="M 213 190 L 218 190 L 218 202 L 213 202 Z M 213 190 " clip-rule="nonzero"/></clipPath><clipPath id="id14"><path d="M 186.835938 196.972656 L 224.667969 187.492188 L 231.230469 213.683594 L 193.398438 223.164062 Z M 186.835938 196.972656 " clip-rule="nonzero"/></clipPath><clipPath id="id15"><path d="M 186.835938 196.972656 L 224.667969 187.492188 L 231.230469 213.683594 L 193.398438 223.164062 Z M 186.835938 196.972656 " clip-rule="nonzero"/></clipPath><clipPath id="id16"><path d="M 217 188 L 227 188 L 227 200 L 217 200 Z M 217 188 " clip-rule="nonzero"/></clipPath><clipPath id="id17"><path d="M 186.835938 196.972656 L 224.667969 187.492188 L 231.230469 213.683594 L 193.398438 223.164062 Z M 186.835938 196.972656 " clip-rule="nonzero"/></clipPath><clipPath id="id18"><path d="M 186.835938 196.972656 L 224.667969 187.492188 L 231.230469 213.683594 L 193.398438 223.164062 Z M 186.835938 196.972656 " clip-rule="nonzero"/></clipPath><clipPath id="id19"><path d="M 226 202 L 232 202 L 232 214 L 226 214 Z M 226 202 " clip-rule="nonzero"/></clipPath><clipPath id="id20"><path d="M 186.835938 196.972656 L 224.667969 187.492188 L 231.230469 213.683594 L 193.398438 223.164062 Z M 186.835938 196.972656 " clip-rule="nonzero"/></clipPath><clipPath id="id21"><path d="M 186.835938 196.972656 L 224.667969 187.492188 L 231.230469 213.683594 L 193.398438 223.164062 Z M 186.835938 196.972656 " clip-rule="nonzero"/></clipPath><clipPath id="id22"><path d="M 217 204 L 227 204 L 227 216 L 217 216 Z M 217 204 " clip-rule="nonzero"/></clipPath><clipPath id="id23"><path d="M 186.835938 196.972656 L 224.667969 187.492188 L 231.230469 213.683594 L 193.398438 223.164062 Z M 186.835938 196.972656 " clip-rule="nonzero"/></clipPath><clipPath id="id24"><path d="M 186.835938 196.972656 L 224.667969 187.492188 L 231.230469 213.683594 L 193.398438 223.164062 Z M 186.835938 196.972656 " clip-rule="nonzero"/></clipPath><clipPath id="id25"><path d="M 213 205 L 218 205 L 218 218 L 213 218 Z M 213 205 " clip-rule="nonzero"/></clipPath><clipPath id="id26"><path d="M 186.835938 196.972656 L 224.667969 187.492188 L 231.230469 213.683594 L 193.398438 223.164062 Z M 186.835938 196.972656 " clip-rule="nonzero"/></clipPath><clipPath id="id27"><path d="M 186.835938 196.972656 L 224.667969 187.492188 L 231.230469 213.683594 L 193.398438 223.164062 Z M 186.835938 196.972656 " clip-rule="nonzero"/></clipPath><clipPath id="id28"><path d="M 204 207 L 214 207 L 214 220 L 204 220 Z M 204 207 " clip-rule="nonzero"/></clipPath><clipPath id="id29"><path d="M 186.835938 196.972656 L 224.667969 187.492188 L 231.230469 213.683594 L 193.398438 223.164062 Z M 186.835938 196.972656 " clip-rule="nonzero"/></clipPath><clipPath id="id30"><path d="M 186.835938 196.972656 L 224.667969 187.492188 L 231.230469 213.683594 L 193.398438 223.164062 Z M 186.835938 196.972656 " clip-rule="nonzero"/></clipPath><clipPath id="id31"><path d="M 200 209 L 205 209 L 205 221 L 200 221 Z M 200 209 " clip-rule="nonzero"/></clipPath><clipPath id="id32"><path d="M 186.835938 196.972656 L 224.667969 187.492188 L 231.230469 213.683594 L 193.398438 223.164062 Z M 186.835938 196.972656 " clip-rule="nonzero"/></clipPath><clipPath id="id33"><path d="M 186.835938 196.972656 L 224.667969 187.492188 L 231.230469 213.683594 L 193.398438 223.164062 Z M 186.835938 196.972656 " clip-rule="nonzero"/></clipPath><clipPath id="id34"><path d="M 191 210 L 201 210 L 201 223 L 191 223 Z M 191 210 " clip-rule="nonzero"/></clipPath><clipPath id="id35"><path d="M 186.835938 196.972656 L 224.667969 187.492188 L 231.230469 213.683594 L 193.398438 223.164062 Z M 186.835938 196.972656 " clip-rule="nonzero"/></clipPath><clipPath id="id36"><path d="M 186.835938 196.972656 L 224.667969 187.492188 L 231.230469 213.683594 L 193.398438 223.164062 Z M 186.835938 196.972656 " clip-rule="nonzero"/></clipPath><clipPath id="id37"><path d="M 143.730469 146 L 229.980469 146 L 229.980469 229 L 143.730469 229 Z M 143.730469 146 " clip-rule="nonzero"/></clipPath><clipPath id="id38"><path d="M 143.929688 145.953125 L 229.71875 145.953125 L 229.71875 228.269531 L 143.929688 228.269531 Z M 143.929688 145.953125 " clip-rule="nonzero"/></clipPath></defs><g clip-path="url(#id1)"><g clip-path="url(#id2)"><g clip-path="url(#id3)"><path fill="rgb(71.369934%, 32.548523%, 20.779419%)" d="M 190.597656 207.957031 C 190.859375 207.894531 191.058594 207.746094 191.199219 207.515625 C 191.335938 207.289062 191.375 207.042969 191.308594 206.785156 L 188.964844 197.433594 C 188.902344 197.175781 188.753906 196.976562 188.523438 196.839844 C 188.292969 196.703125 188.046875 196.667969 187.785156 196.734375 C 187.523438 196.800781 187.324219 196.945312 187.1875 197.175781 C 187.046875 197.40625 187.011719 197.648438 187.074219 197.90625 L 189.417969 207.261719 C 189.484375 207.519531 189.632812 207.714844 189.859375 207.851562 C 190.089844 207.988281 190.335938 208.023438 190.597656 207.957031 Z M 190.597656 207.957031 " fill-opacity="1" fill-rule="nonzero"/></g></g></g><g clip-path="url(#id4)"><g clip-path="url(#id5)"><g clip-path="url(#id6)"><path fill="rgb(71.369934%, 32.548523%, 20.779419%)" d="M 195.351562 194.839844 L 193.460938 195.3125 C 193.082031 195.40625 192.738281 195.570312 192.425781 195.796875 C 192.117188 196.027344 191.859375 196.308594 191.660156 196.636719 C 191.460938 196.96875 191.332031 197.320312 191.273438 197.703125 C 191.214844 198.082031 191.230469 198.457031 191.324219 198.828125 L 192.730469 204.441406 C 192.824219 204.8125 192.988281 205.152344 193.21875 205.460938 C 193.445312 205.769531 193.726562 206.019531 194.058594 206.21875 C 194.390625 206.414062 194.75 206.539062 195.132812 206.59375 C 195.515625 206.652344 195.894531 206.632812 196.273438 206.535156 L 198.164062 206.0625 C 198.539062 205.96875 198.882812 205.808594 199.195312 205.578125 C 199.507812 205.347656 199.761719 205.070312 199.960938 204.738281 C 200.164062 204.410156 200.292969 204.054688 200.351562 203.675781 C 200.40625 203.292969 200.390625 202.917969 200.296875 202.546875 L 198.890625 196.933594 C 198.796875 196.5625 198.636719 196.222656 198.40625 195.914062 C 198.175781 195.605469 197.894531 195.355469 197.5625 195.15625 C 197.230469 194.960938 196.871094 194.835938 196.488281 194.78125 C 196.105469 194.726562 195.726562 194.746094 195.351562 194.839844 Z M 198.40625 203.019531 C 198.46875 203.277344 198.433594 203.523438 198.292969 203.75 C 198.15625 203.980469 197.957031 204.128906 197.695312 204.191406 L 195.804688 204.667969 C 195.542969 204.730469 195.296875 204.695312 195.066406 204.558594 C 194.835938 204.421875 194.6875 204.226562 194.625 203.96875 L 193.214844 198.355469 C 193.152344 198.097656 193.1875 197.855469 193.328125 197.625 C 193.46875 197.394531 193.667969 197.25 193.929688 197.183594 L 195.820312 196.710938 C 196.082031 196.644531 196.324219 196.679688 196.554688 196.816406 C 196.785156 196.953125 196.933594 197.148438 197 197.40625 Z M 198.40625 203.019531 " fill-opacity="1" fill-rule="nonzero"/></g></g></g><g clip-path="url(#id7)"><g clip-path="url(#id8)"><g clip-path="url(#id9)"><path fill="rgb(71.369934%, 32.548523%, 20.779419%)" d="M 203.835938 204.640625 C 204.097656 204.574219 204.296875 204.429688 204.4375 204.199219 C 204.574219 203.972656 204.613281 203.726562 204.546875 203.46875 L 202.203125 194.117188 C 202.140625 193.855469 201.992188 193.660156 201.761719 193.523438 C 201.53125 193.386719 201.285156 193.351562 201.023438 193.417969 C 200.761719 193.484375 200.5625 193.628906 200.421875 193.859375 C 200.285156 194.085938 200.246094 194.332031 200.3125 194.589844 L 202.65625 203.941406 C 202.722656 204.203125 202.867188 204.398438 203.097656 204.535156 C 203.328125 204.671875 203.574219 204.707031 203.835938 204.640625 Z M 203.835938 204.640625 " fill-opacity="1" fill-rule="nonzero"/></g></g></g><g clip-path="url(#id10)"><g clip-path="url(#id11)"><g clip-path="url(#id12)"><path fill="rgb(71.369934%, 32.548523%, 20.779419%)" d="M 208.589844 191.519531 L 206.695312 191.996094 C 206.320312 192.089844 205.976562 192.25 205.664062 192.480469 C 205.351562 192.710938 205.097656 192.988281 204.898438 193.320312 C 204.695312 193.648438 204.566406 194.003906 204.511719 194.382812 C 204.453125 194.765625 204.46875 195.140625 204.5625 195.511719 L 205.96875 201.125 C 206.0625 201.496094 206.226562 201.835938 206.453125 202.144531 C 206.683594 202.453125 206.964844 202.703125 207.296875 202.902344 C 207.628906 203.097656 207.988281 203.222656 208.371094 203.277344 C 208.753906 203.332031 209.132812 203.3125 209.507812 203.21875 L 211.402344 202.746094 C 211.777344 202.652344 212.121094 202.488281 212.433594 202.261719 C 212.746094 202.03125 213 201.75 213.199219 201.421875 C 213.402344 201.089844 213.53125 200.738281 213.585938 200.355469 C 213.644531 199.976562 213.628906 199.601562 213.535156 199.230469 L 212.128906 193.617188 C 212.035156 193.246094 211.871094 192.90625 211.644531 192.597656 C 211.414062 192.289062 211.132812 192.039062 210.800781 191.839844 C 210.46875 191.644531 210.109375 191.519531 209.726562 191.464844 C 209.34375 191.40625 208.964844 191.425781 208.589844 191.519531 Z M 211.644531 199.703125 C 211.707031 199.960938 211.671875 200.203125 211.53125 200.433594 C 211.394531 200.664062 211.191406 200.808594 210.933594 200.875 L 209.039062 201.347656 C 208.78125 201.414062 208.535156 201.378906 208.304688 201.242188 C 208.074219 201.105469 207.925781 200.910156 207.859375 200.652344 L 206.453125 195.039062 C 206.390625 194.78125 206.425781 194.535156 206.566406 194.308594 C 206.703125 194.078125 206.90625 193.929688 207.164062 193.867188 L 209.058594 193.390625 C 209.316406 193.328125 209.5625 193.363281 209.792969 193.5 C 210.023438 193.636719 210.171875 193.832031 210.238281 194.089844 Z M 211.644531 199.703125 " fill-opacity="1" fill-rule="nonzero"/></g></g></g><g clip-path="url(#id13)"><g clip-path="url(#id14)"><g clip-path="url(#id15)"><path fill="rgb(71.369934%, 32.548523%, 20.779419%)" d="M 217.074219 201.324219 C 217.335938 201.257812 217.535156 201.113281 217.675781 200.882812 C 217.8125 200.652344 217.851562 200.410156 217.785156 200.152344 L 215.441406 190.796875 C 215.375 190.539062 215.230469 190.34375 215 190.207031 C 214.769531 190.070312 214.523438 190.035156 214.261719 190.101562 C 214 190.164062 213.800781 190.3125 213.660156 190.542969 C 213.523438 190.769531 213.484375 191.015625 213.550781 191.273438 L 215.894531 200.625 C 215.957031 200.882812 216.105469 201.082031 216.335938 201.21875 C 216.566406 201.355469 216.8125 201.390625 217.074219 201.324219 Z M 217.074219 201.324219 " fill-opacity="1" fill-rule="nonzero"/></g></g></g><g clip-path="url(#id16)"><g clip-path="url(#id17)"><g clip-path="url(#id18)"><path fill="rgb(71.369934%, 32.548523%, 20.779419%)" d="M 221.824219 188.203125 L 219.933594 188.679688 C 219.558594 188.773438 219.214844 188.933594 218.902344 189.164062 C 218.589844 189.394531 218.335938 189.671875 218.132812 190.003906 C 217.933594 190.332031 217.804688 190.6875 217.746094 191.066406 C 217.691406 191.445312 217.707031 191.824219 217.800781 192.195312 L 219.207031 197.808594 C 219.300781 198.179688 219.460938 198.519531 219.691406 198.828125 C 219.921875 199.132812 220.203125 199.386719 220.535156 199.582031 C 220.867188 199.78125 221.226562 199.90625 221.609375 199.960938 C 221.992188 200.015625 222.371094 199.996094 222.746094 199.902344 L 224.636719 199.429688 C 225.015625 199.335938 225.359375 199.171875 225.671875 198.941406 C 225.980469 198.714844 226.238281 198.433594 226.4375 198.105469 C 226.636719 197.773438 226.765625 197.417969 226.824219 197.039062 C 226.882812 196.660156 226.863281 196.285156 226.773438 195.910156 L 225.367188 190.300781 C 225.273438 189.925781 225.109375 189.585938 224.878906 189.28125 C 224.652344 188.972656 224.371094 188.71875 224.039062 188.523438 C 223.707031 188.328125 223.347656 188.199219 222.964844 188.144531 C 222.582031 188.089844 222.203125 188.109375 221.824219 188.203125 Z M 224.878906 196.386719 C 224.945312 196.644531 224.910156 196.886719 224.769531 197.117188 C 224.628906 197.34375 224.429688 197.492188 224.167969 197.558594 L 222.277344 198.03125 C 222.015625 198.097656 221.773438 198.0625 221.542969 197.925781 C 221.3125 197.789062 221.164062 197.589844 221.097656 197.332031 L 219.691406 191.722656 C 219.628906 191.460938 219.664062 191.21875 219.804688 190.992188 C 219.941406 190.761719 220.140625 190.613281 220.402344 190.546875 L 222.292969 190.074219 C 222.554688 190.007812 222.800781 190.042969 223.03125 190.179688 C 223.261719 190.316406 223.410156 190.515625 223.472656 190.773438 Z M 224.878906 196.386719 " fill-opacity="1" fill-rule="nonzero"/></g></g></g><g clip-path="url(#id19)"><g clip-path="url(#id20)"><g clip-path="url(#id21)"><path fill="rgb(71.369934%, 32.548523%, 20.779419%)" d="M 227.46875 202.695312 C 227.207031 202.761719 227.007812 202.910156 226.867188 203.136719 C 226.726562 203.367188 226.691406 203.609375 226.757812 203.867188 L 229.101562 213.222656 C 229.164062 213.480469 229.3125 213.675781 229.542969 213.8125 C 229.773438 213.949219 230.019531 213.984375 230.28125 213.921875 C 230.542969 213.855469 230.742188 213.707031 230.878906 213.480469 C 231.019531 213.25 231.054688 213.007812 230.992188 212.75 L 228.648438 203.394531 C 228.582031 203.136719 228.433594 202.9375 228.203125 202.800781 C 227.972656 202.667969 227.726562 202.628906 227.46875 202.695312 Z M 227.46875 202.695312 " fill-opacity="1" fill-rule="nonzero"/></g></g></g><g clip-path="url(#id22)"><g clip-path="url(#id23)"><g clip-path="url(#id24)"><path fill="rgb(71.369934%, 32.548523%, 20.779419%)" d="M 221.792969 204.117188 L 219.902344 204.589844 C 219.527344 204.6875 219.183594 204.847656 218.871094 205.078125 C 218.558594 205.308594 218.304688 205.585938 218.101562 205.917969 C 217.902344 206.246094 217.773438 206.601562 217.714844 206.980469 C 217.660156 207.359375 217.675781 207.738281 217.769531 208.109375 L 219.175781 213.722656 C 219.269531 214.09375 219.429688 214.433594 219.660156 214.742188 C 219.890625 215.046875 220.171875 215.300781 220.503906 215.496094 C 220.835938 215.691406 221.191406 215.820312 221.578125 215.875 C 221.960938 215.929688 222.339844 215.910156 222.714844 215.816406 L 224.605469 215.34375 C 224.984375 215.246094 225.328125 215.085938 225.636719 214.855469 C 225.949219 214.628906 226.207031 214.347656 226.40625 214.019531 C 226.605469 213.6875 226.734375 213.332031 226.792969 212.953125 C 226.851562 212.574219 226.832031 212.199219 226.738281 211.824219 L 225.332031 206.214844 C 225.242188 205.839844 225.078125 205.5 224.847656 205.191406 C 224.617188 204.886719 224.335938 204.632812 224.003906 204.4375 C 223.671875 204.242188 223.316406 204.113281 222.933594 204.058594 C 222.550781 204.003906 222.171875 204.023438 221.792969 204.117188 Z M 224.847656 212.300781 C 224.914062 212.558594 224.875 212.800781 224.738281 213.03125 C 224.597656 213.257812 224.398438 213.40625 224.136719 213.472656 L 222.246094 213.945312 C 221.984375 214.011719 221.738281 213.976562 221.507812 213.839844 C 221.277344 213.703125 221.132812 213.503906 221.066406 213.246094 L 219.660156 207.632812 C 219.59375 207.375 219.632812 207.132812 219.773438 206.902344 C 219.910156 206.675781 220.109375 206.527344 220.371094 206.460938 L 222.261719 205.988281 C 222.523438 205.921875 222.769531 205.957031 223 206.09375 C 223.230469 206.230469 223.378906 206.429688 223.441406 206.6875 Z M 224.847656 212.300781 " fill-opacity="1" fill-rule="nonzero"/></g></g></g><g clip-path="url(#id25)"><g clip-path="url(#id26)"><g clip-path="url(#id27)"><path fill="rgb(71.369934%, 32.548523%, 20.779419%)" d="M 214.230469 206.011719 C 213.96875 206.078125 213.769531 206.226562 213.628906 206.453125 C 213.492188 206.683594 213.453125 206.925781 213.519531 207.1875 L 215.863281 216.539062 C 215.925781 216.796875 216.074219 216.996094 216.304688 217.132812 C 216.535156 217.269531 216.78125 217.304688 217.042969 217.238281 C 217.304688 217.171875 217.503906 217.023438 217.640625 216.796875 C 217.78125 216.566406 217.816406 216.324219 217.753906 216.066406 L 215.410156 206.710938 C 215.34375 206.453125 215.195312 206.257812 214.964844 206.121094 C 214.734375 205.984375 214.492188 205.949219 214.230469 206.011719 Z M 214.230469 206.011719 " fill-opacity="1" fill-rule="nonzero"/></g></g></g><g clip-path="url(#id28)"><g clip-path="url(#id29)"><g clip-path="url(#id30)"><path fill="rgb(71.369934%, 32.548523%, 20.779419%)" d="M 208.554688 207.433594 L 206.664062 207.910156 C 206.289062 208.003906 205.945312 208.164062 205.632812 208.394531 C 205.320312 208.625 205.066406 208.902344 204.863281 209.234375 C 204.664062 209.5625 204.535156 209.917969 204.476562 210.296875 C 204.421875 210.679688 204.4375 211.054688 204.53125 211.425781 L 205.9375 217.039062 C 206.03125 217.410156 206.191406 217.75 206.421875 218.058594 C 206.652344 218.367188 206.933594 218.617188 207.265625 218.8125 C 207.597656 219.011719 207.957031 219.136719 208.339844 219.191406 C 208.722656 219.246094 209.101562 219.226562 209.476562 219.132812 L 211.367188 218.660156 C 211.746094 218.566406 212.089844 218.402344 212.402344 218.171875 C 212.710938 217.945312 212.96875 217.664062 213.167969 217.335938 C 213.367188 217.003906 213.496094 216.648438 213.554688 216.269531 C 213.613281 215.890625 213.59375 215.515625 213.503906 215.140625 L 212.097656 209.53125 C 212.003906 209.160156 211.839844 208.816406 211.609375 208.511719 C 211.378906 208.203125 211.101562 207.949219 210.769531 207.753906 C 210.4375 207.558594 210.078125 207.433594 209.695312 207.375 C 209.3125 207.320312 208.933594 207.339844 208.554688 207.433594 Z M 211.609375 215.617188 C 211.675781 215.875 211.640625 216.117188 211.5 216.347656 C 211.359375 216.574219 211.160156 216.722656 210.898438 216.789062 L 209.007812 217.261719 C 208.746094 217.328125 208.503906 217.292969 208.273438 217.15625 C 208.042969 217.019531 207.894531 216.824219 207.828125 216.5625 L 206.421875 210.953125 C 206.359375 210.695312 206.394531 210.449219 206.535156 210.222656 C 206.671875 209.992188 206.871094 209.84375 207.132812 209.78125 L 209.023438 209.304688 C 209.285156 209.242188 209.53125 209.277344 209.761719 209.414062 C 209.992188 209.546875 210.140625 209.746094 210.203125 210.003906 Z M 211.609375 215.617188 " fill-opacity="1" fill-rule="nonzero"/></g></g></g><g clip-path="url(#id31)"><g clip-path="url(#id32)"><g clip-path="url(#id33)"><path fill="rgb(71.369934%, 32.548523%, 20.779419%)" d="M 200.992188 209.332031 C 200.730469 209.394531 200.53125 209.542969 200.390625 209.773438 C 200.253906 210 200.214844 210.246094 200.28125 210.503906 L 202.625 219.855469 C 202.6875 220.113281 202.835938 220.3125 203.066406 220.449219 C 203.296875 220.585938 203.542969 220.621094 203.804688 220.554688 C 204.066406 220.488281 204.265625 220.34375 204.40625 220.113281 C 204.542969 219.882812 204.582031 219.640625 204.515625 219.382812 L 202.171875 210.027344 C 202.105469 209.769531 201.960938 209.574219 201.730469 209.4375 C 201.5 209.300781 201.253906 209.265625 200.992188 209.332031 Z M 200.992188 209.332031 " fill-opacity="1" fill-rule="nonzero"/></g></g></g><g clip-path="url(#id34)"><g clip-path="url(#id35)"><g clip-path="url(#id36)"><path fill="rgb(71.369934%, 32.548523%, 20.779419%)" d="M 195.320312 210.753906 L 193.425781 211.226562 C 193.050781 211.320312 192.707031 211.484375 192.394531 211.710938 C 192.082031 211.941406 191.828125 212.222656 191.628906 212.550781 C 191.425781 212.878906 191.296875 213.234375 191.242188 213.617188 C 191.183594 213.996094 191.199219 214.371094 191.292969 214.742188 L 192.699219 220.355469 C 192.792969 220.726562 192.957031 221.066406 193.183594 221.375 C 193.414062 221.683594 193.695312 221.933594 194.027344 222.132812 C 194.359375 222.328125 194.71875 222.453125 195.101562 222.507812 C 195.484375 222.5625 195.863281 222.546875 196.238281 222.449219 L 198.132812 221.976562 C 198.507812 221.882812 198.851562 221.71875 199.164062 221.492188 C 199.476562 221.261719 199.730469 220.980469 199.929688 220.652344 C 200.132812 220.324219 200.261719 219.96875 200.316406 219.585938 C 200.375 219.207031 200.359375 218.832031 200.265625 218.460938 L 198.859375 212.847656 C 198.765625 212.476562 198.601562 212.136719 198.375 211.828125 C 198.144531 211.519531 197.863281 211.269531 197.53125 211.070312 C 197.199219 210.875 196.839844 210.75 196.457031 210.695312 C 196.074219 210.636719 195.695312 210.65625 195.320312 210.753906 Z M 198.375 218.933594 C 198.4375 219.191406 198.402344 219.4375 198.261719 219.664062 C 198.125 219.894531 197.921875 220.039062 197.664062 220.105469 L 195.769531 220.578125 C 195.511719 220.644531 195.265625 220.609375 195.035156 220.472656 C 194.804688 220.335938 194.65625 220.140625 194.589844 219.882812 L 193.183594 214.269531 C 193.121094 214.011719 193.15625 213.765625 193.296875 213.539062 C 193.433594 213.308594 193.636719 213.164062 193.894531 213.097656 L 195.789062 212.625 C 196.046875 212.558594 196.292969 212.59375 196.523438 212.730469 C 196.753906 212.867188 196.902344 213.0625 196.96875 213.320312 Z M 198.375 218.933594 " fill-opacity="1" fill-rule="nonzero"/></g></g></g><g clip-path="url(#id37)"><path fill="rgb(90.19928%, 67.83905%, 38.038635%)" d="M 165.488281 227.574219 C 165.488281 227.574219 162.859375 229.714844 162.335938 226.191406 C 162.132812 224.828125 162.0625 222.941406 161.085938 220.707031 C 160.273438 218.839844 160.039062 216.921875 159.59375 214.933594 C 159.082031 212.667969 158.042969 210.640625 156.804688 209.804688 C 153.78125 208.78125 154.433594 206.203125 154.753906 204.113281 C 154.984375 202.59375 154.910156 201.304688 152.648438 200.273438 C 150.382812 199.242188 150.652344 196.683594 151.113281 195.265625 C 151.726562 193.390625 150.265625 191.550781 148.5 190.648438 C 146.730469 189.742188 146.507812 184.808594 148.351562 182.5 C 150.199219 180.191406 144.503906 172.886719 144.113281 170 C 143.761719 167.414062 144.140625 160.554688 144.722656 159.179688 C 145.304688 157.808594 150.375 150.253906 157.542969 148.441406 C 164.710938 146.632812 176.113281 144.960938 185.597656 146.796875 C 195.082031 148.636719 207.609375 152.050781 213.730469 158.019531 C 219.527344 163.671875 225.722656 171.777344 227.4375 179.503906 C 227.671875 180.566406 227.984375 181.613281 228.335938 182.648438 C 229.019531 184.660156 229.949219 187.679688 229.585938 188.253906 C 229.03125 189.125 208.585938 207.980469 165.488281 227.574219 " fill-opacity="1" fill-rule="nonzero"/></g><g clip-path="url(#id38)"><path stroke-linecap="butt" transform="matrix(0.0052775, 0, 0, -0.00525429, 143.928233, 228.267772)" fill="none" stroke-linejoin="miter" d="M 4085.273841 131.997496 C 4085.273841 131.997496 3587.139438 -275.407494 3487.95666 395.175173 C 3450.20799 654.63565 3436.14476 1013.717056 3251.842433 1438.964601 C 3097.146905 1795.072248 3052.736706 2159.357732 2968.357327 2537.768571 C 2871.395059 2968.963634 2674.509841 3354.808872 2439.875955 3513.904981 C 1866.984383 3708.686199 1990.592771 4199.356443 2051.286711 4597.840156 C 2094.95674 4886.294785 2080.89351 5131.629907 1652.335086 5327.898004 C 1223.036493 5524.166102 1274.108222 6011.119147 1361.448281 6280.987781 C 1477.654969 6637.838868 1200.831393 6988.742436 866.274558 7160.477021 C 530.977553 7332.211607 488.787863 8271.919468 838.148098 8711.292368 C 1188.248503 9150.665269 109.080659 10540.154187 35.06366 11089.556172 C -31.551639 11582.456735 40.24485 12887.19352 150.530178 13148.884317 C 260.815507 13410.575114 1221.556153 14848.387617 2579.768083 15192.600227 C 3937.980013 15536.812838 6098.536212 15855.748496 7895.668946 15505.588368 C 9692.801679 15156.171679 12066.526835 14506.405325 13226.373208 13369.685927 C 14324.785472 12294.672029 15499.435245 10752.034519 15824.36987 9281.510667 C 15868.78007 9078.551611 15927.993669 8879.309755 15993.868798 8683.041657 C 16123.398546 8299.426739 16300.299173 7724.747802 16231.463364 7615.462157 C 16126.359226 7449.675089 12252.309502 3861.091351 4085.273841 131.997496 Z M 4085.273841 131.997496 " stroke="rgb(7.449341%, 7.058716%, 7.058716%)" stroke-width="18.766001" stroke-opacity="1" stroke-miterlimit="10"/></g><path fill="rgb(90.19928%, 67.83905%, 38.038635%)" d="M 201.886719 208.515625 C 201.859375 208.515625 201.828125 208.507812 201.804688 208.484375 C 196.917969 203.886719 193.289062 196.917969 191.105469 191.882812 C 190.652344 190.84375 190.203125 189.78125 189.769531 188.753906 C 187.8125 184.117188 185.792969 179.324219 182.910156 175.121094 C 180.136719 171.074219 176.636719 167.605469 173.25 164.253906 C 171.917969 162.933594 170.585938 161.617188 169.253906 160.296875 L 167.300781 158.363281 C 166.597656 157.664062 165.871094 156.941406 165.0625 156.347656 C 163.617188 155.277344 161.65625 154.507812 159.761719 153.765625 C 157.507812 152.878906 155.175781 151.964844 153.589844 150.519531 C 153.539062 150.476562 153.535156 150.402344 153.582031 150.351562 C 153.625 150.304688 153.699219 150.300781 153.75 150.347656 C 155.304688 151.761719 157.617188 152.667969 159.851562 153.546875 C 161.757812 154.296875 163.734375 155.070312 165.203125 156.15625 C 166.027344 156.761719 166.761719 157.492188 167.46875 158.195312 L 169.421875 160.128906 C 170.753906 161.449219 172.085938 162.765625 173.417969 164.085938 C 176.8125 167.445312 180.320312 170.921875 183.109375 174.988281 C 186 179.210938 188.027344 184.015625 189.988281 188.660156 C 190.421875 189.6875 190.871094 190.75 191.320312 191.789062 C 193.496094 196.804688 197.109375 203.742188 201.96875 208.3125 C 202.015625 208.359375 202.019531 208.433594 201.972656 208.480469 C 201.949219 208.503906 201.917969 208.515625 201.886719 208.515625 " fill-opacity="1" fill-rule="nonzero"/><path fill="rgb(90.19928%, 67.83905%, 38.038635%)" d="M 207.550781 204.871094 C 207.523438 204.871094 207.492188 204.859375 207.46875 204.835938 C 204.390625 201.910156 202.59375 197.628906 200.855469 193.484375 C 200.238281 192.007812 199.652344 190.613281 199.011719 189.277344 C 197.796875 186.742188 196.304688 184.078125 194.453125 181.128906 C 192.484375 178 190.351562 174.929688 188.101562 172 C 185.085938 168.0625 182.363281 165.019531 179.539062 162.421875 C 172.84375 156.269531 164.230469 151.515625 155.914062 149.375 C 155.851562 149.359375 155.8125 149.292969 155.832031 149.230469 C 155.847656 149.167969 155.910156 149.128906 155.976562 149.144531 C 164.328125 151.296875 172.976562 156.070312 179.699219 162.25 C 182.535156 164.851562 185.265625 167.90625 188.292969 171.855469 C 190.542969 174.792969 192.683594 177.871094 194.652344 181.003906 C 196.511719 183.960938 198.007812 186.632812 199.226562 189.175781 C 199.867188 190.519531 200.457031 191.914062 201.074219 193.394531 C 202.804688 197.515625 204.589844 201.777344 207.632812 204.667969 C 207.679688 204.710938 207.683594 204.785156 207.636719 204.832031 C 207.613281 204.859375 207.582031 204.871094 207.550781 204.871094 " fill-opacity="1" fill-rule="nonzero"/><path fill="rgb(90.19928%, 67.83905%, 38.038635%)" d="M 212.425781 201.71875 C 212.375 201.71875 212.324219 201.683594 212.3125 201.628906 C 210.800781 195.660156 207.15625 190.25 203.632812 185.015625 C 202.039062 182.648438 200.390625 180.203125 198.984375 177.761719 C 198.585938 177.070312 198.199219 176.363281 197.828125 175.675781 C 197.40625 174.90625 196.972656 174.109375 196.523438 173.34375 C 194.515625 169.90625 191.988281 166.648438 189.011719 163.660156 C 186.503906 161.140625 183.726562 158.867188 180.761719 156.898438 C 179.671875 156.175781 178.214844 155.257812 176.605469 154.585938 C 175.386719 154.078125 174.089844 153.710938 172.835938 153.355469 C 172.511719 153.265625 172.1875 153.175781 171.863281 153.082031 C 169.429688 152.371094 166.949219 151.230469 164.550781 150.125 C 163.109375 149.460938 161.617188 148.773438 160.1875 148.210938 C 160.125 148.183594 160.097656 148.117188 160.121094 148.054688 C 160.144531 147.996094 160.214844 147.964844 160.273438 147.988281 C 161.710938 148.558594 163.207031 149.246094 164.652344 149.910156 C 167.042969 151.011719 169.511719 152.152344 171.933594 152.855469 C 172.253906 152.945312 172.578125 153.039062 172.898438 153.128906 C 174.160156 153.484375 175.464844 153.855469 176.695312 154.367188 C 178.328125 155.046875 179.796875 155.972656 180.894531 156.703125 C 183.871094 158.675781 186.660156 160.960938 189.179688 163.492188 C 192.167969 166.496094 194.710938 169.769531 196.726562 173.222656 C 197.179688 173.996094 197.613281 174.792969 198.035156 175.566406 C 198.40625 176.25 198.792969 176.957031 199.1875 177.640625 C 200.59375 180.078125 202.238281 182.519531 203.828125 184.882812 C 207.363281 190.132812 211.019531 195.5625 212.542969 201.570312 C 212.558594 201.636719 212.519531 201.699219 212.457031 201.714844 C 212.445312 201.71875 212.4375 201.71875 212.425781 201.71875 " fill-opacity="1" fill-rule="nonzero"/><path fill="rgb(90.19928%, 67.83905%, 38.038635%)" d="M 219.175781 196.9375 C 219.125 196.9375 219.082031 196.90625 219.0625 196.859375 C 218.949219 196.539062 218.835938 196.214844 218.71875 195.886719 C 217.507812 192.472656 216.003906 188.222656 214.054688 185.265625 C 213.082031 183.78125 211.925781 182.390625 210.8125 181.042969 L 196.242188 163.46875 C 194.835938 161.769531 193.378906 160.015625 191.667969 158.566406 C 189.792969 156.984375 187.648438 155.804688 185.800781 154.859375 C 181.601562 152.714844 173.410156 148.871094 165.6875 147.222656 C 165.625 147.207031 165.582031 147.144531 165.597656 147.082031 C 165.609375 147.015625 165.675781 146.976562 165.738281 146.988281 C 173.488281 148.644531 181.699219 152.5 185.90625 154.648438 C 187.769531 155.601562 189.925781 156.789062 191.820312 158.386719 C 193.550781 159.847656 195.011719 161.613281 196.425781 163.320312 L 210.992188 180.894531 C 212.113281 182.246094 213.273438 183.640625 214.253906 185.132812 C 216.21875 188.117188 217.726562 192.378906 218.941406 195.808594 C 219.058594 196.136719 219.175781 196.460938 219.285156 196.777344 C 219.308594 196.839844 219.277344 196.90625 219.214844 196.929688 C 219.203125 196.933594 219.1875 196.9375 219.175781 196.9375 " fill-opacity="1" fill-rule="nonzero"/><path fill="rgb(90.19928%, 67.83905%, 38.038635%)" d="M 223.800781 193.292969 C 223.757812 193.292969 223.71875 193.269531 223.695312 193.230469 C 223.476562 192.820312 223.222656 192.335938 222.964844 191.851562 C 222.710938 191.367188 222.453125 190.882812 222.234375 190.472656 C 219.238281 184.832031 216.136719 179 212.535156 173.589844 C 210.457031 170.46875 208.164062 167.417969 205.949219 164.46875 C 203.832031 161.65625 201.644531 158.746094 198.703125 156.6875 C 196.644531 155.242188 194.21875 154.246094 192.074219 153.363281 C 191.023438 152.929688 189.96875 152.480469 188.851562 152.003906 C 183.105469 149.554688 176.589844 146.777344 170.566406 146.59375 C 170.503906 146.59375 170.449219 146.539062 170.453125 146.472656 C 170.453125 146.410156 170.507812 146.359375 170.570312 146.359375 C 170.574219 146.359375 170.574219 146.359375 170.574219 146.359375 C 176.644531 146.542969 183.179688 149.328125 188.945312 151.789062 C 190.0625 152.265625 191.117188 152.714844 192.164062 153.144531 C 194.320312 154.03125 196.761719 155.035156 198.839844 156.492188 C 201.8125 158.574219 204.011719 161.5 206.136719 164.328125 C 208.355469 167.277344 210.652344 170.332031 212.734375 173.457031 C 216.34375 178.878906 219.445312 184.714844 222.445312 190.359375 C 222.664062 190.769531 222.917969 191.253906 223.175781 191.742188 C 223.429688 192.226562 223.6875 192.710938 223.90625 193.121094 C 223.9375 193.179688 223.914062 193.25 223.855469 193.28125 C 223.839844 193.289062 223.820312 193.292969 223.800781 193.292969 " fill-opacity="1" fill-rule="nonzero"/><path fill="rgb(90.19928%, 67.83905%, 38.038635%)" d="M 227.375 190.492188 C 227.332031 190.492188 227.292969 190.46875 227.269531 190.429688 C 226.355469 188.617188 225.371094 186.683594 224.417969 184.8125 C 223.464844 182.941406 222.476562 181.003906 221.5625 179.195312 C 220.476562 177.042969 219.351562 174.820312 218.097656 172.714844 C 213.5625 165.097656 207.121094 158.679688 199.476562 154.152344 C 194.222656 151.046875 187.660156 148.414062 180.492188 146.550781 C 180.429688 146.53125 180.390625 146.46875 180.40625 146.40625 C 180.425781 146.339844 180.488281 146.304688 180.550781 146.320312 C 187.742188 148.191406 194.328125 150.832031 199.59375 153.949219 C 207.277344 158.496094 213.746094 164.941406 218.304688 172.59375 C 219.5625 174.707031 220.6875 176.933594 221.777344 179.089844 C 222.6875 180.898438 223.675781 182.832031 224.628906 184.703125 C 225.582031 186.578125 226.566406 188.511719 227.484375 190.320312 C 227.511719 190.378906 227.488281 190.449219 227.429688 190.480469 C 227.414062 190.488281 227.394531 190.492188 227.375 190.492188 " fill-opacity="1" fill-rule="nonzero"/><path fill="rgb(90.19928%, 67.83905%, 38.038635%)" d="M 191.039062 204.035156 C 191 204.035156 190.960938 204.015625 190.9375 203.984375 C 188.484375 200.355469 186.511719 196.875 184.308594 192.765625 C 183.957031 192.105469 183.609375 191.425781 183.273438 190.773438 C 182.765625 189.785156 182.242188 188.769531 181.6875 187.789062 C 179.441406 183.804688 176.539062 180.164062 173.734375 176.640625 L 169.839844 171.75 C 168.632812 170.238281 167.386719 168.671875 165.914062 167.371094 C 165.839844 167.308594 165.765625 167.246094 165.691406 167.179688 C 165.078125 166.644531 164.4375 166.089844 164.15625 165.316406 C 164.039062 164.984375 163.992188 164.636719 163.949219 164.296875 C 163.929688 164.125 163.90625 163.945312 163.875 163.777344 C 163.378906 161.144531 160.703125 159.625 157.886719 158.371094 C 157.328125 158.121094 156.707031 157.890625 156.046875 157.644531 C 153.613281 156.742188 150.855469 155.714844 149.6875 153.269531 C 149.65625 153.207031 149.683594 153.136719 149.742188 153.109375 C 149.800781 153.082031 149.871094 153.109375 149.902344 153.167969 C 151.027344 155.527344 153.738281 156.535156 156.128906 157.421875 C 156.792969 157.671875 157.417969 157.902344 157.984375 158.152344 C 160.859375 159.433594 163.589844 160.996094 164.105469 163.730469 C 164.140625 163.910156 164.164062 164.089844 164.1875 164.269531 C 164.230469 164.609375 164.269531 164.929688 164.378906 165.234375 C 164.640625 165.953125 165.253906 166.488281 165.847656 167.003906 C 165.921875 167.066406 165.996094 167.132812 166.070312 167.195312 C 167.5625 168.507812 168.8125 170.082031 170.027344 171.605469 L 173.921875 176.496094 C 176.730469 180.023438 179.636719 183.671875 181.894531 187.671875 C 182.453125 188.65625 182.976562 189.675781 183.484375 190.664062 C 183.820312 191.316406 184.167969 191.996094 184.519531 192.652344 C 186.71875 196.757812 188.6875 200.230469 191.136719 203.851562 C 191.171875 203.90625 191.15625 203.980469 191.101562 204.015625 C 191.082031 204.03125 191.058594 204.035156 191.039062 204.035156 " fill-opacity="1" fill-rule="nonzero"/><path fill="rgb(90.19928%, 67.83905%, 38.038635%)" d="M 188.597656 216.230469 C 188.570312 216.230469 188.546875 216.222656 188.523438 216.207031 C 186.824219 214.871094 185.859375 212.863281 184.925781 210.925781 L 184.871094 210.808594 C 182.742188 206.382812 180.390625 201.96875 178.117188 197.703125 L 174.175781 190.3125 C 172.925781 187.964844 171.632812 185.539062 169.824219 183.523438 C 169.5 183.164062 169.152344 182.808594 168.816406 182.460938 C 168.027344 181.652344 167.207031 180.816406 166.617188 179.824219 C 166.355469 179.382812 166.132812 178.90625 165.921875 178.445312 C 165.566406 177.671875 165.195312 176.871094 164.617188 176.246094 C 164.210938 175.800781 163.691406 175.4375 163.191406 175.085938 C 162.421875 174.546875 161.632812 173.988281 161.210938 173.136719 C 160.824219 172.351562 160.820312 171.464844 160.820312 170.605469 C 160.820312 169.824219 160.820312 169.015625 160.523438 168.308594 C 160.171875 167.476562 159.433594 166.84375 158.78125 166.289062 C 157.046875 164.800781 154.96875 162.957031 152.964844 161.175781 C 150.960938 159.390625 148.886719 157.546875 147.148438 156.0625 C 147.097656 156.019531 147.09375 155.945312 147.136719 155.898438 C 147.179688 155.847656 147.253906 155.84375 147.304688 155.882812 C 149.042969 157.371094 151.117188 159.214844 153.121094 161 C 155.128906 162.78125 157.203125 164.625 158.9375 166.109375 C 159.609375 166.679688 160.367188 167.332031 160.742188 168.21875 C 161.058594 168.96875 161.058594 169.800781 161.058594 170.605469 C 161.058594 171.476562 161.058594 172.296875 161.421875 173.03125 C 161.816406 173.832031 162.550781 174.347656 163.328125 174.890625 C 163.839844 175.25 164.367188 175.621094 164.792969 176.085938 C 165.398438 176.738281 165.773438 177.558594 166.136719 178.347656 C 166.347656 178.800781 166.566406 179.273438 166.820312 179.703125 C 167.398438 180.671875 168.207031 181.496094 168.988281 182.296875 C 169.324219 182.644531 169.675781 183 170.003906 183.367188 C 171.828125 185.402344 173.128906 187.84375 174.386719 190.203125 L 178.324219 197.59375 C 180.601562 201.863281 182.953125 206.277344 185.085938 210.707031 L 185.140625 210.824219 C 186.0625 212.738281 187.015625 214.71875 188.671875 216.019531 C 188.722656 216.0625 188.730469 216.136719 188.691406 216.1875 C 188.667969 216.214844 188.632812 216.230469 188.597656 216.230469 " fill-opacity="1" fill-rule="nonzero"/><path fill="rgb(90.19928%, 67.83905%, 38.038635%)" d="M 182.308594 219.492188 C 182.269531 219.492188 182.230469 219.472656 182.207031 219.4375 C 181.519531 218.335938 180.75 217.085938 180.007812 215.878906 C 179.265625 214.671875 178.5 213.421875 177.8125 212.324219 L 165.492188 192.613281 C 164.332031 190.757812 163.132812 188.839844 162.414062 186.726562 C 162.257812 186.269531 162.117188 185.789062 161.980469 185.324219 C 161.5 183.679688 161.003906 181.976562 159.707031 180.917969 C 159.558594 180.796875 159.394531 180.679688 159.238281 180.570312 C 158.882812 180.316406 158.511719 180.058594 158.25 179.691406 C 157.996094 179.328125 157.867188 178.886719 157.753906 178.496094 C 157.3125 176.988281 156.855469 175.425781 156.730469 173.820312 C 156.714844 173.65625 156.707031 173.492188 156.699219 173.324219 C 156.671875 172.878906 156.644531 172.417969 156.546875 171.980469 C 156.144531 170.199219 154.644531 168.941406 153.195312 167.726562 C 153.003906 167.5625 152.808594 167.402344 152.621094 167.242188 C 150.453125 165.382812 148.296875 161.457031 146.726562 158.589844 C 146.550781 158.269531 146.382812 157.964844 146.226562 157.683594 C 146.191406 157.625 146.214844 157.550781 146.269531 157.519531 C 146.328125 157.488281 146.402344 157.511719 146.433594 157.566406 C 146.589844 157.851562 146.757812 158.15625 146.933594 158.476562 C 148.496094 161.328125 150.640625 165.230469 152.777344 167.0625 C 152.964844 167.222656 153.15625 167.382812 153.347656 167.542969 C 154.828125 168.785156 156.359375 170.066406 156.777344 171.925781 C 156.882812 172.382812 156.910156 172.855469 156.933594 173.3125 C 156.945312 173.476562 156.953125 173.640625 156.964844 173.800781 C 157.089844 175.382812 157.542969 176.933594 157.980469 178.429688 C 158.09375 178.820312 158.210938 179.222656 158.445312 179.554688 C 158.683594 179.886719 159.019531 180.125 159.375 180.378906 C 159.535156 180.492188 159.699219 180.609375 159.855469 180.734375 C 161.214844 181.839844 161.71875 183.578125 162.210938 185.257812 C 162.34375 185.71875 162.484375 186.199219 162.636719 186.652344 C 163.347656 188.738281 164.539062 190.644531 165.691406 192.488281 L 178.011719 212.199219 C 178.699219 213.296875 179.46875 214.546875 180.210938 215.753906 C 180.953125 216.964844 181.722656 218.210938 182.410156 219.3125 C 182.445312 219.367188 182.425781 219.441406 182.371094 219.472656 C 182.351562 219.484375 182.332031 219.492188 182.308594 219.492188 " fill-opacity="1" fill-rule="nonzero"/><path fill="rgb(90.19928%, 67.83905%, 38.038635%)" d="M 175.828125 222.707031 C 175.785156 222.707031 175.746094 222.6875 175.722656 222.648438 C 174.445312 220.367188 173.054688 217.914062 171.707031 215.546875 C 170.363281 213.175781 168.972656 210.726562 167.695312 208.445312 C 167.457031 208.019531 167.210938 207.574219 166.847656 207.246094 C 166.589844 207.015625 166.289062 206.847656 165.972656 206.671875 C 165.792969 206.570312 165.609375 206.472656 165.4375 206.355469 C 164.023438 205.433594 163.132812 203.660156 162.792969 201.082031 C 162.730469 200.625 162.683594 200.15625 162.636719 199.703125 C 162.484375 198.195312 162.324219 196.640625 161.667969 195.273438 C 161.335938 194.578125 160.871094 193.929688 160.421875 193.304688 C 159.875 192.546875 159.308594 191.761719 158.96875 190.871094 C 158.683594 190.140625 158.558594 189.351562 158.433594 188.589844 C 158.269531 187.558594 158.109375 186.585938 157.605469 185.726562 C 157.125 184.90625 156.367188 184.273438 155.628906 183.664062 C 154.949219 183.101562 154.246094 182.519531 153.746094 181.78125 C 152.863281 180.480469 152.703125 178.878906 152.550781 177.328125 C 152.40625 175.875 152.257812 174.371094 151.507812 173.140625 C 151.167969 172.582031 150.707031 172.089844 150.261719 171.613281 C 150.128906 171.46875 149.992188 171.324219 149.859375 171.175781 C 147.25 168.285156 145.488281 162.386719 145.351562 158.582031 C 145.351562 158.515625 145.402344 158.460938 145.46875 158.457031 C 145.527344 158.457031 145.585938 158.507812 145.589844 158.574219 C 145.722656 162.335938 147.460938 168.167969 150.035156 171.019531 C 150.167969 171.164062 150.300781 171.308594 150.4375 171.453125 C 150.890625 171.9375 151.359375 172.441406 151.710938 173.019531 C 152.488281 174.296875 152.640625 175.824219 152.785156 177.304688 C 152.9375 178.824219 153.09375 180.398438 153.941406 181.648438 C 154.425781 182.359375 155.113281 182.929688 155.78125 183.484375 C 156.53125 184.105469 157.3125 184.75 157.8125 185.605469 C 158.335938 186.503906 158.507812 187.546875 158.667969 188.554688 C 158.789062 189.304688 158.914062 190.078125 159.1875 190.785156 C 159.519531 191.648438 160.078125 192.421875 160.613281 193.167969 C 161.070312 193.800781 161.539062 194.457031 161.882812 195.171875 C 162.554688 196.574219 162.71875 198.152344 162.871094 199.679688 C 162.917969 200.132812 162.964844 200.597656 163.027344 201.050781 C 163.359375 203.554688 164.214844 205.273438 165.566406 206.160156 C 165.734375 206.269531 165.914062 206.367188 166.085938 206.464844 C 166.402344 206.640625 166.730469 206.820312 167.007812 207.070312 C 167.398438 207.425781 167.65625 207.886719 167.902344 208.328125 C 169.179688 210.609375 170.570312 213.058594 171.914062 215.429688 C 173.261719 217.800781 174.652344 220.25 175.929688 222.53125 C 175.960938 222.589844 175.941406 222.660156 175.882812 222.691406 C 175.867188 222.703125 175.847656 222.707031 175.828125 222.707031 " fill-opacity="1" fill-rule="nonzero"/><path fill="rgb(90.19928%, 67.83905%, 38.038635%)" d="M 167.941406 226.488281 C 167.886719 226.488281 167.835938 226.449219 167.824219 226.394531 C 167.261719 223.238281 166.015625 219.738281 164.570312 217.25 C 164.292969 216.773438 163.996094 216.296875 163.707031 215.835938 C 163.042969 214.773438 162.355469 213.675781 161.871094 212.496094 C 161.757812 212.226562 161.652344 211.945312 161.554688 211.675781 C 161.152344 210.601562 160.738281 209.496094 159.847656 208.824219 C 159.585938 208.628906 159.28125 208.472656 158.988281 208.320312 C 158.554688 208.09375 158.105469 207.863281 157.761719 207.492188 C 156.769531 206.417969 157.097656 204.757812 157.484375 203.285156 C 157.988281 201.371094 157.808594 200.066406 156.953125 199.398438 C 156.632812 199.148438 156.222656 199.007812 155.824219 198.871094 C 155.328125 198.699219 154.8125 198.523438 154.441406 198.128906 C 154.058594 197.722656 153.855469 197.113281 153.832031 196.269531 C 153.804688 195.40625 153.925781 194.539062 154.039062 193.699219 C 154.152344 192.871094 154.269531 192.011719 154.242188 191.167969 C 154.195312 189.5625 153.390625 187.664062 151.734375 187.289062 C 151.644531 187.269531 151.554688 187.253906 151.464844 187.238281 C 151.171875 187.1875 150.871094 187.136719 150.625 186.945312 C 150.136719 186.570312 150.125 185.878906 150.183594 185.25 L 150.632812 180.140625 C 150.6875 179.539062 150.742188 178.917969 150.617188 178.320312 C 150.453125 177.523438 149.984375 176.820312 149.472656 176.105469 C 149.359375 175.949219 149.242188 175.789062 149.128906 175.628906 C 147.273438 173.058594 145.355469 170.402344 145.5 167.300781 C 145.5 167.238281 145.558594 167.1875 145.621094 167.1875 C 145.6875 167.191406 145.738281 167.246094 145.734375 167.3125 C 145.597656 170.332031 147.488281 172.953125 149.320312 175.492188 C 149.4375 175.652344 149.550781 175.8125 149.664062 175.96875 C 150.191406 176.703125 150.679688 177.429688 150.851562 178.273438 C 150.980469 178.902344 150.925781 179.542969 150.871094 180.160156 L 150.417969 185.269531 C 150.367188 185.835938 150.371094 186.453125 150.769531 186.757812 C 150.96875 186.914062 151.230469 186.957031 151.503906 187.007812 C 151.601562 187.023438 151.695312 187.039062 151.785156 187.058594 C 153.566406 187.460938 154.429688 189.464844 154.480469 191.160156 C 154.507812 192.023438 154.386719 192.894531 154.273438 193.734375 C 154.160156 194.5625 154.042969 195.421875 154.070312 196.265625 C 154.09375 197.046875 154.269531 197.605469 154.613281 197.96875 C 154.945312 198.316406 155.410156 198.476562 155.902344 198.648438 C 156.316406 198.789062 156.746094 198.9375 157.101562 199.214844 C 158.039062 199.941406 158.246094 201.332031 157.714844 203.34375 C 157.34375 204.757812 157.023438 206.347656 157.9375 207.332031 C 158.25 207.671875 158.660156 207.886719 159.097656 208.109375 C 159.398438 208.265625 159.710938 208.425781 159.988281 208.636719 C 160.9375 209.347656 161.363281 210.488281 161.777344 211.59375 C 161.875 211.863281 161.980469 212.140625 162.089844 212.40625 C 162.570312 213.566406 163.25 214.660156 163.90625 215.710938 C 164.195312 216.175781 164.496094 216.652344 164.773438 217.132812 C 166.230469 219.640625 167.492188 223.171875 168.058594 226.351562 C 168.070312 226.414062 168.027344 226.476562 167.960938 226.488281 C 167.957031 226.488281 167.949219 226.488281 167.941406 226.488281 " fill-opacity="1" fill-rule="nonzero"/><path fill="rgb(90.19928%, 67.83905%, 38.038635%)" d="M 188.308594 206.007812 C 188.308594 206.007812 193.507812 201.9375 193.855469 202.214844 C 194.203125 202.488281 199.277344 209.882812 199.277344 209.882812 L 193.480469 213.480469 L 188.296875 206.265625 L 188.308594 206.007812 " fill-opacity="1" fill-rule="nonzero"/><g fill="rgb(0%, 0%, 0%)" fill-opacity="1"><g transform="translate(159.38097, 196.844014)"><g><path d="M 29.503906 -8.464844 C 29.140625 -8.609375 28.742188 -8.464844 28.59375 -8.101562 C 24.453125 0.691406 20.457031 7.15625 16.675781 11.117188 C 13.480469 14.460938 10.609375 15.84375 8.320312 15.152344 C 6.25 14.496094 4.652344 12.0625 3.851562 8.285156 C 2.941406 4.214844 2.980469 -1.015625 3.925781 -6.832031 C 5.269531 -15.113281 9.15625 -26.851562 13.699219 -32.300781 C 15.042969 -33.898438 16.207031 -34.664062 16.894531 -34.300781 C 18.601562 -33.464844 19.292969 -26.523438 15.550781 -9.703125 C 15.441406 -9.339844 15.695312 -8.976562 16.058594 -8.867188 C 16.460938 -8.792969 16.824219 -9.046875 16.894531 -9.410156 C 19.328125 -20.273438 21.402344 -33.644531 17.511719 -35.570312 C 16.570312 -36.042969 14.96875 -36.007812 12.644531 -33.210938 C 9.738281 -29.722656 7.519531 -24.527344 6.175781 -20.746094 C 4.542969 -16.277344 3.234375 -11.265625 2.542969 -7.050781 C 0.507812 5.414062 2.6875 14.859375 7.921875 16.496094 C 8.429688 16.640625 8.976562 16.714844 9.519531 16.714844 C 15.261719 16.714844 22.5625 8.066406 29.832031 -7.519531 C 30.011719 -7.882812 29.867188 -8.285156 29.503906 -8.464844 Z M 29.503906 -8.464844 "/></g></g></g><g fill="rgb(0%, 0%, 0%)" fill-opacity="1"><g transform="translate(187.42996, 196.844014)"><g><path d="M 10.609375 -8.246094 C 10.28125 -8.464844 9.882812 -8.355469 9.664062 -8.03125 C 7.230469 -4.105469 3.160156 -0.398438 1.925781 -0.910156 C 1.78125 -0.980469 0.617188 -1.671875 2.214844 -7.8125 C 2.289062 -8.210938 2.070312 -8.574219 1.707031 -8.683594 C 1.308594 -8.757812 0.945312 -8.539062 0.835938 -8.175781 C -0.472656 -3.050781 -0.289062 -0.328125 1.34375 0.363281 C 1.597656 0.472656 1.851562 0.507812 2.105469 0.507812 C 4.832031 0.507812 9.011719 -4.359375 10.863281 -7.304688 C 11.046875 -7.628906 10.9375 -8.066406 10.609375 -8.246094 Z M 2.035156 -11.191406 C 3.886719 -11.082031 3.851562 -13.40625 2.363281 -12.898438 C 1.597656 -12.679688 0.617188 -11.265625 2.035156 -11.191406 Z M 2.035156 -11.191406 "/></g></g></g><g fill="rgb(0%, 0%, 0%)" fill-opacity="1"><g transform="translate(196.622183, 196.844014)"><g><path d="M 32.445312 -14.460938 C 32.335938 -14.824219 31.9375 -15.042969 31.574219 -14.898438 C 29.539062 -14.242188 26.667969 -13.371094 23.289062 -12.355469 C 25.144531 -21.945312 27.070312 -31.828125 28.050781 -35.679688 C 28.121094 -36.042969 27.90625 -36.445312 27.542969 -36.515625 C 27.179688 -36.625 26.777344 -36.40625 26.707031 -36.042969 C 25.6875 -32.046875 23.652344 -21.765625 21.765625 -11.917969 C 21.511719 -11.84375 21.253906 -11.734375 20.964844 -11.664062 C 16.570312 -10.355469 11.480469 -8.792969 6.613281 -7.265625 C 7.738281 -12.753906 9.082031 -19.292969 10.71875 -27.03125 L 10.898438 -27.796875 C 11.480469 -30.628906 11.300781 -32.191406 10.320312 -32.808594 C 9.484375 -33.28125 8.320312 -32.917969 6.902344 -31.683594 C 3.523438 -28.742188 -1.851562 -20.421875 -0.328125 -16.75 C 0.0351562 -15.878906 0.910156 -14.859375 3.125 -15.007812 C 3.523438 -15.042969 3.816406 -15.371094 3.777344 -15.769531 C 3.742188 -16.132812 3.414062 -16.421875 3.050781 -16.421875 C 1.378906 -16.3125 1.054688 -17.039062 0.945312 -17.296875 C 0.472656 -18.496094 1.089844 -20.929688 2.652344 -23.800781 C 4.105469 -26.488281 6.140625 -29.140625 7.8125 -30.59375 C 8.976562 -31.609375 9.519531 -31.648438 9.59375 -31.574219 C 9.628906 -31.574219 10.171875 -31.140625 9.519531 -28.085938 L 9.375 -27.324219 C 8.683594 -24.125 6.902344 -15.734375 5.085938 -6.792969 C 2.578125 -5.996094 0.109375 -5.230469 -2.105469 -4.46875 C -5.957031 -3.199219 -8.828125 -2.144531 -10.863281 -1.273438 C -14.132812 0.109375 -14.75 0.761719 -14.714844 1.488281 C -14.679688 1.851562 -14.460938 2.363281 -13.480469 2.542969 C -13.445312 2.542969 -13.40625 2.542969 -13.371094 2.542969 C -13.042969 2.542969 -12.753906 2.324219 -12.679688 2 C -12.609375 1.707031 -12.753906 1.417969 -12.972656 1.273438 C -12.027344 0.691406 -9.230469 -0.652344 -0.871094 -3.414062 C 0.910156 -3.996094 2.796875 -4.613281 4.761719 -5.230469 C 4.398438 -3.453125 4.03125 -1.636719 3.667969 0.144531 C 2.398438 6.46875 1.417969 11.445312 0.800781 15.007812 C 0.4375 17.078125 0.144531 18.675781 0 19.765625 C -0.21875 21.363281 -0.328125 22.164062 0.4375 22.382812 C 0.507812 22.417969 0.582031 22.417969 0.652344 22.417969 C 1.234375 22.417969 1.488281 21.691406 1.78125 20.929688 C 1.890625 20.566406 1.707031 20.203125 1.378906 20.058594 C 1.707031 17.511719 2.871094 10.9375 6.285156 -5.703125 C 11.410156 -7.304688 16.75 -8.9375 21.363281 -10.320312 C 21.402344 -10.355469 21.4375 -10.355469 21.472656 -10.355469 C 21 -7.921875 20.566406 -5.523438 20.128906 -3.304688 C 19.039062 2.542969 18.09375 7.558594 17.660156 9.554688 C 17.585938 9.957031 17.804688 10.320312 18.203125 10.390625 C 18.238281 10.390625 18.3125 10.390625 18.347656 10.390625 C 18.675781 10.390625 18.964844 10.171875 19.039062 9.847656 C 19.4375 7.847656 20.347656 3.050781 21.511719 -3.050781 C 21.984375 -5.488281 22.492188 -8.140625 23 -10.828125 C 26.667969 -11.917969 29.832031 -12.863281 32.011719 -13.589844 C 32.375 -13.699219 32.59375 -14.097656 32.445312 -14.460938 Z M 32.445312 -14.460938 "/></g></g></g></svg>